<?xml version="1.0" encoding="utf-8"?>
<!-- Generator: Adobe Illustrator 22.0.0, SVG Export Plug-In . SVG Version: 6.00 Build 0)  -->
<svg version="1.1" id="Capa_1" xmlns="http://www.w3.org/2000/svg" xmlns:xlink="http://www.w3.org/1999/xlink" x="0px" y="0px"
	 viewBox="0 0 143 135.6" style="enable-background:new 0 0 143 135.6;" xml:space="preserve">
<style type="text/css">
	.st0{clip-path:url(#SVGID_2_);}
	.st1{clip-path:url(#SVGID_4_);}
	.st2{clip-path:url(#SVGID_8_);}
	.st3{clip-path:url(#SVGID_12_);}
	.st4{clip-path:url(#SVGID_14_);}
	.st5{clip-path:url(#SVGID_18_);}
	.st6{clip-path:url(#SVGID_22_);fill:#FFC239;}
	.st7{clip-path:url(#SVGID_24_);fill:#F5F5F5;}
	.st8{clip-path:url(#SVGID_24_);}
	.st9{opacity:0.38;clip-path:url(#SVGID_26_);}
	.st10{clip-path:url(#SVGID_28_);}
	.st11{clip-path:url(#SVGID_26_);fill:#FFFFFF;}
	.st12{clip-path:url(#SVGID_32_);}
	.st13{clip-path:url(#SVGID_36_);}
	.st14{clip-path:url(#SVGID_40_);fill:#FFC239;}
	.st15{clip-path:url(#SVGID_40_);fill:#FFFFFF;}
	.st16{clip-path:url(#SVGID_40_);fill:none;stroke:#FFFFFF;stroke-width:2.154;stroke-miterlimit:10;}
	.st17{clip-path:url(#SVGID_40_);fill:none;stroke:#FFFFFF;stroke-width:2;stroke-miterlimit:10;}
	.st18{opacity:0.63;clip-path:url(#SVGID_40_);}
	.st19{clip-path:url(#SVGID_42_);}
	.st20{clip-path:url(#SVGID_46_);}
	.st21{fill:#FFFFFF;}
</style>
<g>
	<path class="st21" d="M72.1,14.5c17.4,0,34.8,0,52.2,0c11.4,0,15.5,3.9,15.5,15.1c0.1,24.7,0.1,49.4,0.1,74.1
		c0,10.4-4,14.6-14.6,14.7c-35.7,0.1-71.4,0.1-107.1,0.1c-10.8,0-14.9-4.4-14.9-15.1c0-24.5-0.1-49,0-73.4c0-11.3,4-15.3,15.3-15.4
		C36.4,14.5,54.3,14.5,72.1,14.5L72.1,14.5z M71.3,72.4c16-16,33.1-33.1,49.3-49.3H20.9c-0.4,0.6-0.7,1.2-1.1,1.8
		C37.4,41.2,55,57.5,71.3,72.4 M20.6,109.8h101.8C110.7,97.7,99,85.5,86.4,72.5C83,76.3,79.7,80,76.3,83.7c-2.9,3.1-5.9,3.2-8.8,0
		c-3.5-3.8-7-7.7-9.7-10.6C44.8,85.9,32.8,97.8,20.6,109.8 M11.8,32v69.1c11.7-11.6,23.6-23.3,35.9-35.5
		C35.9,54.6,23.7,43.1,11.8,32 M131.4,101.8v-70c-11.9,11.7-23.6,23.3-34.9,34.5C107.7,77.7,119.2,89.4,131.4,101.8"/>
</g>
</svg>
