<?xml version="1.0" encoding="utf-8"?>
<!-- Generator: Adobe Illustrator 22.0.0, SVG Export Plug-In . SVG Version: 6.00 Build 0)  -->
<svg version="1.1" id="Capa_2" xmlns="http://www.w3.org/2000/svg" xmlns:xlink="http://www.w3.org/1999/xlink" x="0px" y="0px"
	 viewBox="0 0 2505.8 179.5" style="enable-background:new 0 0 2505.8 179.5;" xml:space="preserve">
<style type="text/css">
	.st0{clip-path:url(#SVGID_2_);fill:#FFC239;}
	.st1{clip-path:url(#SVGID_4_);}
	.st2{clip-path:url(#SVGID_6_);}
	.st3{clip-path:url(#SVGID_8_);}
</style>
<g>
	<g>
		<defs>
			<polyline id="SVGID_1_" points="-0.5,-179.8 2493.4,-179.8 2493.4,108.7 -0.5,108.7 -0.5,-179.8 			"/>
		</defs>
		<clipPath id="SVGID_2_">
			<use xlink:href="#SVGID_1_"  style="overflow:visible;"/>
		</clipPath>
		<polyline class="st0" points="-3.5,109 2505.8,0 -3.5,-180.1 -3.5,109 		"/>
	</g>
	<g>
		<defs>
			<polyline id="SVGID_3_" points="-3.5,108.9 2491.7,108.9 2491.7,-180.3 -3.5,-180.3 -3.5,108.9 			"/>
		</defs>
		<clipPath id="SVGID_4_">
			<use xlink:href="#SVGID_3_"  style="overflow:visible;"/>
		</clipPath>
		<g class="st1">
			<defs>
				<polyline id="SVGID_5_" points="2491.7,0.8 -3.5,-180.3 -3.5,108.9 2491.7,0.8 				"/>
			</defs>
			<clipPath id="SVGID_6_">
				<use xlink:href="#SVGID_5_"  style="overflow:visible;"/>
			</clipPath>
			<g class="st2">
				<defs>
					<polyline id="SVGID_7_" points="-3.5,-180.3 2491.7,-180.3 2491.7,108.9 -3.5,108.9 -3.5,-180.3 					"/>
				</defs>
				<clipPath id="SVGID_8_">
					<use xlink:href="#SVGID_7_"  style="overflow:visible;"/>
				</clipPath>
				<g class="st3">
					<defs>
						<path id="SVGID_9_" d="M2490,0.7L926.6,68.6L2491.7,0.8L2490,0.7 M-3.5-180.3L-3.5-180.3v289.2l4.2-0.2h-1.2v-288.5h1.2
							l224.9,16.1L-3.5-180.3"/>
					</defs>
					<clipPath id="SVGID_10_">
						<use xlink:href="#SVGID_9_"  style="overflow:visible;"/>
					</clipPath>
					<g style="clip-path:url(#SVGID_10_);">
						
							<image style="overflow:visible;" width="77" height="605" xlink:href="50D1F36A.jpg"  transform="matrix(0.48 0 0 -0.48 -4.32 109.42)">
						</image>
					</g>
					<g style="clip-path:url(#SVGID_10_);">
						
							<image style="overflow:visible;" width="1191" height="69" xlink:href="50D1F36E.jpg"  transform="matrix(0.48 0 0 -0.48 922.5599 77.26)">
						</image>
					</g>
					<g style="clip-path:url(#SVGID_10_);">
						
							<image style="overflow:visible;" width="1637" height="70" xlink:href="50D1F369.jpg"  transform="matrix(0.48 0 0 -0.48 1457.2799 45.58)">
						</image>
					</g>
					<g style="clip-path:url(#SVGID_10_);">
						
							<image style="overflow:visible;" width="597" height="70" xlink:href="50D1F36B.jpg"  transform="matrix(0.48 0 0 -0.48 2206.0798 13.42)">
						</image>
					</g>
					<g transform="matrix(1 0 0 1 1.907349e-06 0)" style="clip-path:url(#SVGID_10_);">
						
							<image style="overflow:visible;" width="449" height="70" xlink:href="50D1F368.jpg"  transform="matrix(0.48 0 0 -0.48 31.2 -147.38)">
						</image>
					</g>
				</g>
				<g class="st3">
					<defs>
						<polyline id="SVGID_11_" points="0.7,-179.8 -0.5,-179.8 -0.5,108.7 0.7,108.7 926.6,68.6 2490,0.7 225.6,-163.7 0.7,-179.8 
													"/>
					</defs>
					<clipPath id="SVGID_12_">
						<use xlink:href="#SVGID_11_"  style="overflow:visible;"/>
					</clipPath>
					<g style="clip-path:url(#SVGID_12_);">
						
							<image style="overflow:visible;" width="967" height="604" xlink:href="50D1F376.jpg"  transform="matrix(0.48 0 0 -0.48 -1.44 109.42)">
						</image>
					</g>
					<g style="clip-path:url(#SVGID_12_);">
						
							<image style="overflow:visible;" width="596" height="537" xlink:href="50D1F379.jpg"  transform="matrix(0.48 0 0 -0.48 461.2799 109.42)">
						</image>
					</g>
					<g style="clip-path:url(#SVGID_12_);">
						
							<image style="overflow:visible;" width="1263" height="403" xlink:href="50D1F37A.jpg"  transform="matrix(0.48 0 0 -0.48 745.9199 77.26)">
						</image>
					</g>
					<g style="clip-path:url(#SVGID_12_);">
						
							<image style="overflow:visible;" width="300" height="337" xlink:href="50D1F378.jpg"  transform="matrix(0.48 0 0 -0.48 1350.7198 77.26)">
						</image>
					</g>
					<g style="clip-path:url(#SVGID_12_);">
						
							<image style="overflow:visible;" width="596" height="270" xlink:href="AE582EAD.jpg"  transform="matrix(0.48 0 0 -0.48 1493.2799 45.1)">
						</image>
					</g>
					<g style="clip-path:url(#SVGID_12_);">
						
							<image style="overflow:visible;" width="966" height="203" xlink:href="AE582EA3.jpg"  transform="matrix(0.48 0 0 -0.48 1777.9199 45.1)">
						</image>
					</g>
					<g style="clip-path:url(#SVGID_12_);">
						
							<image style="overflow:visible;" width="522" height="70" xlink:href="AE582EA5.jpg"  transform="matrix(0.48 0 0 -0.48 2240.1599 13.42)">
						</image>
					</g>
					<g style="clip-path:url(#SVGID_12_);">
						
							<image style="overflow:visible;" width="300" height="70" xlink:href="AE582EA7.jpg"  transform="matrix(0.48 0 0 -0.48 745.9199 -114.74)">
						</image>
					</g>
				</g>
			</g>
		</g>
	</g>
</g>
</svg>
