<?xml version="1.0" encoding="utf-8"?>
<!-- Generator: Adobe Illustrator 22.0.0, SVG Export Plug-In . SVG Version: 6.00 Build 0)  -->
<svg version="1.1" id="Capa_1" xmlns="http://www.w3.org/2000/svg" xmlns:xlink="http://www.w3.org/1999/xlink" x="0px" y="0px"
	 viewBox="0 0 2505.8 179.5" style="enable-background:new 0 0 2505.8 179.5;" xml:space="preserve">
<style type="text/css">
	.st0{clip-path:url(#SVGID_2_);fill:#FFC239;}
	.st1{clip-path:url(#SVGID_4_);}
	.st2{clip-path:url(#SVGID_6_);}
	.st3{clip-path:url(#SVGID_8_);}
</style>
<g>
	<g>
		<defs>
			<polyline id="SVGID_1_" points="-0.5,0 2493.4,0 2493.4,288.5 -0.5,288.5 -0.5,0 			"/>
		</defs>
		<clipPath id="SVGID_2_">
			<use xlink:href="#SVGID_1_"  style="overflow:visible;"/>
		</clipPath>
		<polyline class="st0" points="-3.5,288.8 2505.8,179.8 -3.5,-0.3 -3.5,288.8 		"/>
	</g>
	<g>
		<defs>
			<polyline id="SVGID_3_" points="-13.2,288.5 2493.4,288.5 2493.4,-1.1 -13.2,-1.1 -13.2,288.5 			"/>
		</defs>
		<clipPath id="SVGID_4_">
			<use xlink:href="#SVGID_3_"  style="overflow:visible;"/>
		</clipPath>
		<g class="st1">
			<defs>
				<polyline id="SVGID_5_" points="2493.4,180.3 -13.2,-1.1 -13.2,288.5 2493.4,180.3 				"/>
			</defs>
			<clipPath id="SVGID_6_">
				<use xlink:href="#SVGID_5_"  style="overflow:visible;"/>
			</clipPath>
			<g class="st2">
				<defs>
					<polyline id="SVGID_7_" points="-13.2,-1.1 2493.4,-1.1 2493.4,288.5 -13.2,288.5 -13.2,-1.1 					"/>
				</defs>
				<clipPath id="SVGID_8_">
					<use xlink:href="#SVGID_7_"  style="overflow:visible;"/>
				</clipPath>
				<g class="st3">
					<defs>
						<polyline id="SVGID_9_" points="-13.2,-1.1 -13.2,-1.1 -13.2,288.5 -0.5,288 -0.5,0 0.7,0 88.9,6.3 -13.2,-1.1 						"/>
					</defs>
					<clipPath id="SVGID_10_">
						<use xlink:href="#SVGID_9_"  style="overflow:visible;"/>
					</clipPath>
					<g style="clip-path:url(#SVGID_10_);">
						
							<image style="overflow:visible;" width="216" height="607" xlink:href="5F06460B.jpg"  transform="matrix(0.48 0 0 -0.48 -13.92 289.42)">
						</image>
					</g>
				</g>
				<g class="st3">
					<defs>
						<polyline id="SVGID_11_" points="0.7,0 -0.5,0 -0.5,288 2493.4,180.3 88.9,6.3 0.7,0 						"/>
					</defs>
					<clipPath id="SVGID_12_">
						<use xlink:href="#SVGID_11_"  style="overflow:visible;"/>
					</clipPath>
					<g style="clip-path:url(#SVGID_12_);">
						
							<image style="overflow:visible;" width="1117" height="602" xlink:href="5F064609.jpg"  transform="matrix(0.48 0 0 -0.48 -1.44 288.46)">
						</image>
					</g>
					<g style="clip-path:url(#SVGID_12_);">
						
							<image style="overflow:visible;" width="671" height="527" xlink:href="5F06460F.jpg"  transform="matrix(0.48 0 0 -0.48 533.28 288.46)">
						</image>
					</g>
					<g style="clip-path:url(#SVGID_12_);">
						
							<image style="overflow:visible;" width="1339" height="377" xlink:href="5F064608.jpg"  transform="matrix(0.48 0 0 -0.48 853.9199 252.46)">
						</image>
					</g>
					<g style="clip-path:url(#SVGID_12_);">
						
							<image style="overflow:visible;" width="374" height="302" xlink:href="5F064606.jpg"  transform="matrix(0.48 0 0 -0.48 1495.2 252.46)">
						</image>
					</g>
					<g style="clip-path:url(#SVGID_12_);">
						
							<image style="overflow:visible;" width="671" height="227" xlink:href="5F064607.jpg"  transform="matrix(0.48 0 0 -0.48 1673.2799 216.46)">
						</image>
					</g>
					<g transform="matrix(1 0 0 1 1.220703e-04 0)" style="clip-path:url(#SVGID_12_);">
						
							<image style="overflow:visible;" width="1042" height="153" xlink:href="5F064617.jpg"  transform="matrix(0.48 0 0 -0.48 1993.9198 216.46)">
						</image>
					</g>
					<g style="clip-path:url(#SVGID_12_);">
						
							<image style="overflow:visible;" width="300" height="78" xlink:href="5F064619.jpg"  transform="matrix(0.48 0 0 -0.48 853.9199 72.94)">
						</image>
					</g>
				</g>
			</g>
		</g>
	</g>
</g>
</svg>
