<svg width="26" height="25" viewBox="0 0 26 25" fill="none" xmlns="http://www.w3.org/2000/svg">
<path d="M3.48 24.288C2.584 24.288 1.89067 24.0213 1.4 23.488C0.909333 22.9547 0.664 22.1867 0.664 21.184V11.072C0.664 10.0693 0.909333 9.30133 1.4 8.768C1.89067 8.23467 2.584 7.968 3.48 7.968C4.39733 7.968 5.10133 8.23467 5.592 8.768C6.104 9.30133 6.36 10.0693 6.36 11.072V21.184C6.36 22.1867 6.11467 22.9547 5.624 23.488C5.13333 24.0213 4.41867 24.288 3.48 24.288ZM3.48 5.696C2.47733 5.696 1.69867 5.46133 1.144 4.992C0.610667 4.52267 0.344 3.84 0.344 2.944C0.344 2.06933 0.610667 1.39733 1.144 0.927999C1.69867 0.458666 2.47733 0.223999 3.48 0.223999C4.52533 0.223999 5.31467 0.458666 5.848 0.927999C6.38133 1.39733 6.648 2.06933 6.648 2.944C6.648 3.84 6.38133 4.52267 5.848 4.992C5.31467 5.46133 4.52533 5.696 3.48 5.696ZM12.48 24.288C11.584 24.288 10.8907 24.0427 10.4 23.552C9.90933 23.0613 9.664 22.3467 9.664 21.408V10.816C9.664 9.89867 9.89867 9.19467 10.368 8.704C10.8587 8.21333 11.552 7.968 12.448 7.968C13.344 7.968 14.0267 8.21333 14.496 8.704C14.9653 9.19467 15.2 9.89867 15.2 10.816V12.32L14.848 11.008C15.36 10.0053 16.0853 9.23733 17.024 8.704C17.984 8.17067 19.072 7.904 20.288 7.904C21.5467 7.904 22.5813 8.14933 23.392 8.64C24.2027 9.10933 24.8107 9.856 25.216 10.88C25.6213 11.8827 25.824 13.152 25.824 14.688V21.408C25.824 22.3467 25.5787 23.0613 25.088 23.552C24.5973 24.0427 23.8933 24.288 22.976 24.288C22.0587 24.288 21.3547 24.0427 20.864 23.552C20.3733 23.0613 20.128 22.3467 20.128 21.408V14.912C20.128 13.952 19.9573 13.2693 19.616 12.864C19.296 12.4587 18.816 12.256 18.176 12.256C17.3227 12.256 16.64 12.5333 16.128 13.088C15.616 13.6213 15.36 14.3467 15.36 15.264V21.408C15.36 23.328 14.4 24.288 12.48 24.288Z" fill="white"/>
</svg>
