<?xml version="1.0" encoding="utf-8"?>
<!-- Generator: Adobe Illustrator 22.0.0, SVG Export Plug-In . SVG Version: 6.00 Build 0)  -->
<svg version="1.1" id="Capa_1" xmlns="http://www.w3.org/2000/svg" xmlns:xlink="http://www.w3.org/1999/xlink" x="0px" y="0px"
	 viewBox="0 0 136 135.6" style="enable-background:new 0 0 136 135.6;" xml:space="preserve">
<style type="text/css">
	.st0{clip-path:url(#SVGID_2_);}
	.st1{clip-path:url(#SVGID_4_);}
	.st2{clip-path:url(#SVGID_8_);}
	.st3{clip-path:url(#SVGID_12_);}
	.st4{clip-path:url(#SVGID_14_);}
	.st5{clip-path:url(#SVGID_18_);}
	.st6{clip-path:url(#SVGID_22_);fill:#FFC239;}
	.st7{clip-path:url(#SVGID_24_);fill:#F5F5F5;}
	.st8{clip-path:url(#SVGID_24_);}
	.st9{opacity:0.38;clip-path:url(#SVGID_26_);}
	.st10{clip-path:url(#SVGID_28_);}
	.st11{clip-path:url(#SVGID_26_);fill:#FFFFFF;}
	.st12{clip-path:url(#SVGID_32_);}
	.st13{clip-path:url(#SVGID_36_);}
	.st14{clip-path:url(#SVGID_40_);fill:#FFC239;}
	.st15{clip-path:url(#SVGID_40_);fill:#FFFFFF;}
	.st16{clip-path:url(#SVGID_40_);fill:none;stroke:#FFFFFF;stroke-width:2.154;stroke-miterlimit:10;}
	.st17{clip-path:url(#SVGID_40_);fill:none;stroke:#FFFFFF;stroke-width:2;stroke-miterlimit:10;}
	.st18{opacity:0.63;clip-path:url(#SVGID_40_);}
	.st19{clip-path:url(#SVGID_42_);}
	.st20{clip-path:url(#SVGID_46_);}
	.st21{fill:#FFFFFF;}
</style>
<g>
	<path class="st21" d="M133.7,68c0,9.4,0,18.8,0,28.3c0,12.9-5.2,23.2-15.7,30.7c-6.1,4.3-13,6.3-20.5,6.3c-19.4,0-38.7,0.2-58.1,0
		c-14-0.1-24.6-6.5-31.6-18.6c-3.2-5.4-4.5-11.4-4.5-17.6c0-19.3-0.2-38.6,0.1-57.9c0.2-15.5,7.6-26.7,21.6-33.3
		c4.6-2.2,9.6-3,14.7-3c19.2,0,38.5-0.2,57.7,0.1c15.6,0.2,26.9,7.7,33.5,21.9c2.1,4.6,2.9,9.5,2.9,14.6
		C133.7,48.9,133.7,58.4,133.7,68 M122.1,68.2L122.1,68.2c0-9.7,0.1-19.4,0-29.1c0-2-0.2-4-0.7-6c-2.6-11.2-12.3-18.7-24.1-18.8
		c-19.2-0.1-38.5,0-57.7,0c-3.6,0-7.2,0.6-10.5,2.2c-9.4,4.7-14.3,12.3-14.3,22.8c-0.1,19.1-0.1,38.2,0,57.3
		c0,14.2,10.6,24.9,24.8,24.9c19.1,0.1,38.3,0.1,57.4-0.1c2.8,0,5.6-0.4,8.3-1.3c10.2-3.3,16.6-12.4,16.7-23.5
		C122.1,87.3,122.1,77.7,122.1,68.2"/>
	<path class="st21" d="M68.7,34.4c19.3,0.4,33.7,15.8,33.4,34.1c-0.3,19-15.7,33.3-33.8,33.1c-19-0.2-33.6-15.6-33.3-34
		C35.2,48.5,50.5,34.5,68.7,34.4 M90.5,68c-0.2-12.4-10.2-22.3-22.3-22c-12.1,0.3-21.9,10.2-21.7,22c0.2,12.4,10.1,22.2,22.3,22
		C80.8,89.8,90.7,79.9,90.5,68"/>
	<path class="st21" d="M103.5,41.5c-4.6,0-8.4-3.7-8.4-8.3c-0.1-4.7,3.7-8.5,8.4-8.6c4.6-0.1,8.5,3.8,8.5,8.4
		C112,37.7,108.2,41.5,103.5,41.5"/>
</g>
</svg>
