<?xml version="1.0" encoding="utf-8"?>
<!-- Generator: Adobe Illustrator 22.0.0, SVG Export Plug-In . SVG Version: 6.00 Build 0)  -->
<svg version="1.1" id="Capa_1" xmlns="http://www.w3.org/2000/svg" xmlns:xlink="http://www.w3.org/1999/xlink" x="0px" y="0px"
	 viewBox="0 0 136 135.6" style="enable-background:new 0 0 136 135.6;" xml:space="preserve">
<style type="text/css">
	.st0{clip-path:url(#SVGID_2_);}
	.st1{clip-path:url(#SVGID_4_);}
	.st2{clip-path:url(#SVGID_8_);}
	.st3{clip-path:url(#SVGID_12_);}
	.st4{clip-path:url(#SVGID_14_);}
	.st5{clip-path:url(#SVGID_18_);}
	.st6{clip-path:url(#SVGID_22_);fill:#FFC239;}
	.st7{clip-path:url(#SVGID_24_);fill:#F5F5F5;}
	.st8{clip-path:url(#SVGID_24_);}
	.st9{opacity:0.38;clip-path:url(#SVGID_26_);}
	.st10{clip-path:url(#SVGID_28_);}
	.st11{clip-path:url(#SVGID_26_);fill:#FFFFFF;}
	.st12{clip-path:url(#SVGID_32_);}
	.st13{clip-path:url(#SVGID_36_);}
	.st14{clip-path:url(#SVGID_40_);fill:#FFC239;}
	.st15{clip-path:url(#SVGID_40_);fill:#FFFFFF;}
	.st16{clip-path:url(#SVGID_40_);fill:none;stroke:#FFFFFF;stroke-width:2.154;stroke-miterlimit:10;}
	.st17{clip-path:url(#SVGID_40_);fill:none;stroke:#FFFFFF;stroke-width:2;stroke-miterlimit:10;}
	.st18{opacity:0.63;clip-path:url(#SVGID_40_);}
	.st19{clip-path:url(#SVGID_42_);}
	.st20{clip-path:url(#SVGID_46_);}
	.st21{fill:#FFFFFF;}
</style>
<g>
	<path class="st21" d="M77,46.4c2.3-1.6,4.4-3.3,6.7-4.7c5.8-3.4,12.1-4,18.7-3.4c4.1,0.4,8,1.3,11.6,3.3c6,3.3,9.5,8.4,11.5,14.8
		c1.6,5.3,2.3,10.8,2.3,16.3c0.1,14.8,0.1,29.5,0.1,44.3c0,1.8-0.7,2.5-2.6,2.5c-7.5,0-14.9,0-22.4,0c-1.8,0-2.4-0.7-2.4-2.7
		c0-7.1,0-14.3,0-21.4c0-6.7,0-13.5-0.1-20.2c0-2.6-0.4-5.2-1.6-7.6c-1.3-2.7-3.4-4.4-6.5-4.7c-1.8-0.2-3.7-0.2-5.5,0.1
		c-3.8,0.6-6.2,3-7.5,6.6C78,73.3,78,77.1,78,81c0,11.6,0,23.3,0,34.9c0,0.5,0,0.9,0,1.4c-0.1,1.6-0.7,2.2-2.3,2.3
		c-2.1,0-4.2,0-6.3,0c-5.3,0-10.7,0-16,0c-2.2,0-2.8-0.6-2.8-2.8c0-23.8,0-47.6,0-71.4c0-1,0-2,0-3c0-1.7,0.7-2.3,2.4-2.4
		c1.4,0,2.8,0,4.1,0c5.7,0,11.4,0,17.2,0c2.1,0,2.7,0.6,2.6,2.7C77,44,77,45.3,77,46.4"/>
	<path class="st21" d="M12.3,79.7V43.9c0-0.4,0-0.9,0-1.3c0-2,0.6-2.6,2.6-2.6c4.6,0,9.2,0,13.8,0c2.8,0,5.5,0,8.3,0
		c1.9,0,2.6,0.6,2.6,2.5c0,24.6,0,49.2,0,73.7c0,0.3,0,0.6,0,0.8c-0.1,1.8-0.7,2.4-2.5,2.4c-4.7,0-9.5,0-14.2,0c-2.7,0-5.4,0-8,0
		c-2,0-2.6-0.6-2.6-2.6C12.3,104.5,12.3,92.1,12.3,79.7L12.3,79.7z"/>
	<path class="st21" d="M41.5,17.9c0,8.5-6.8,15.5-15.3,15.5c-8.6,0.1-15.7-6.9-15.7-15.4c0-8.6,6.9-15.7,15.6-15.7
		C34.6,2.4,41.4,9.3,41.5,17.9"/>
</g>
</svg>
