<?xml version="1.0" encoding="utf-8"?>
<!-- Generator: Adobe Illustrator 22.0.0, SVG Export Plug-In . SVG Version: 6.00 Build 0)  -->
<svg version="1.1" xmlns="http://www.w3.org/2000/svg" xmlns:xlink="http://www.w3.org/1999/xlink" x="0px" y="0px"
	 viewBox="0 0 1314.1 1868.7" style="enable-background:new 0 0 1314.1 1868.7;" xml:space="preserve">
<style type="text/css">
	.st0{clip-path:url(#SVGID_2_);fill:#FFC239;}
	.st1{clip-path:url(#SVGID_2_);}
	.st2{opacity:0.69;clip-path:url(#SVGID_5_);}
	.st3{clip-path:url(#SVGID_7_);}
	.st4{filter:url(#Adobe_OpacityMaskFilter);}
	.st5{clip-path:url(#SVGID_10_);fill:url(#SVGID_14_);}
	.st6{clip-path:url(#SVGID_10_);mask:url(#SVGID_12_);fill:url(#SVGID_16_);}
	.st7{clip-path:url(#SVGID_18_);}
	.st8{clip-path:url(#SVGID_22_);}
	.st9{clip-path:url(#SVGID_26_);}
	.st10{clip-path:url(#SVGID_28_);}
	.st11{display:none;clip-path:url(#SVGID_2_);}
	.st12{display:inline;}
	.st13{display:inline;filter:url(#Adobe_OpacityMaskFilter_1_);}
	.st14{clip-path:url(#SVGID_32_);fill:url(#SVGID_34_);}
	.st15{display:inline;clip-path:url(#SVGID_32_);mask:url(#SVGID_33_);fill:url(#SVGID_35_);}
	.st16{display:inline;filter:url(#Adobe_OpacityMaskFilter_2_);}
	.st17{clip-path:url(#SVGID_37_);fill:url(#SVGID_39_);}
	.st18{display:inline;clip-path:url(#SVGID_37_);mask:url(#SVGID_38_);fill:url(#SVGID_40_);}
	.st19{clip-path:url(#SVGID_42_);}
	.st20{clip-path:url(#SVGID_44_);fill:#FFC239;}
	.st21{clip-path:url(#SVGID_2_);fill:#FFFFFF;}
	.st22{clip-path:url(#SVGID_2_);fill:none;stroke:#FFFFFF;stroke-width:2.143;stroke-miterlimit:10;}
	.st23{clip-path:url(#SVGID_2_);fill:none;stroke:#FFFFFF;stroke-width:2;stroke-miterlimit:10;}
	.st24{opacity:0.69;clip-path:url(#SVGID_46_);}
	.st25{clip-path:url(#SVGID_48_);}
	.st26{filter:url(#Adobe_OpacityMaskFilter_3_);}
	.st27{clip-path:url(#SVGID_50_);fill:url(#SVGID_52_);}
	.st28{clip-path:url(#SVGID_50_);mask:url(#SVGID_51_);fill:url(#SVGID_53_);}
	.st29{clip-path:url(#SVGID_2_);fill:none;stroke:#FFFFFF;stroke-width:1.413;stroke-miterlimit:10;}
	.st30{clip-path:url(#SVGID_57_);}
	.st31{fill:#FFC239;}
	.st32{clip-path:url(#SVGID_58_);}
	.st33{clip-path:url(#SVGID_60_);}
	.st34{clip-path:url(#SVGID_62_);fill:#FFC239;}
	.st35{fill:#FFFFFF;}
</style>
<g id="Capa_1">
	<g>
		<defs>
			<rect id="SVGID_1_" x="2986.9" y="66.4" width="2500" height="2972"/>
		</defs>
		<clipPath id="SVGID_2_">
			<use xlink:href="#SVGID_1_"  style="overflow:visible;"/>
		</clipPath>
		<polygon class="st0" points="4514.4,2602.6 5486.4,3038.4 5486.9,3038.4 5486.9,1928.3 4514.4,1897.4 		"/>
		<g class="st1">
			<defs>
				<rect id="SVGID_4_" x="2986.9" y="66.4" width="2500" height="2972"/>
			</defs>
			<clipPath id="SVGID_5_">
				<use xlink:href="#SVGID_4_"  style="overflow:visible;"/>
			</clipPath>
			<g class="st2">
				<g>
					<defs>
						<rect id="SVGID_6_" x="4513.9" y="1929.4" width="1007" height="1125"/>
					</defs>
					<clipPath id="SVGID_7_">
						<use xlink:href="#SVGID_6_"  style="overflow:visible;"/>
					</clipPath>
					<g class="st3">
						<defs>
							<polygon id="SVGID_8_" points="4513.9,2605.7 4513.9,1933.4 5520.9,1929.4 5520.9,3054.4 							"/>
						</defs>
						<clipPath id="SVGID_10_">
							<use xlink:href="#SVGID_8_"  style="overflow:visible;"/>
						</clipPath>
						<defs>
							<filter id="Adobe_OpacityMaskFilter" filterUnits="userSpaceOnUse" x="4513.9" y="1929.4" width="1007" height="1125">
								<feColorMatrix  type="matrix" values="1 0 0 0 0  0 1 0 0 0  0 0 1 0 0  0 0 0 1 0"/>
							</filter>
						</defs>
						<mask maskUnits="userSpaceOnUse" x="4513.9" y="1929.4" width="1007" height="1125" id="SVGID_12_">
							<g class="st4">
								
									<linearGradient id="SVGID_14_" gradientUnits="userSpaceOnUse" x1="2986.929" y1="3038.4001" x2="2987.929" y2="3038.4001" gradientTransform="matrix(1007 0 0 -1007 -3003323.5 3062160.75)">
									<stop  offset="0" style="stop-color:#FFFFFF"/>
									<stop  offset="0.1028" style="stop-color:#FFFFFF"/>
									<stop  offset="0.1659" style="stop-color:#F5F5F5"/>
									<stop  offset="0.2738" style="stop-color:#DADADA"/>
									<stop  offset="0.4135" style="stop-color:#ADADAD"/>
									<stop  offset="0.5794" style="stop-color:#707070"/>
									<stop  offset="0.7657" style="stop-color:#222222"/>
									<stop  offset="0.7856" style="stop-color:#1A1A1A"/>
									<stop  offset="1" style="stop-color:#1A1A1A"/>
								</linearGradient>
								<rect x="4513.9" y="1929.4" class="st5" width="1007" height="1125"/>
							</g>
						</mask>
						
							<linearGradient id="SVGID_16_" gradientUnits="userSpaceOnUse" x1="2986.929" y1="3038.4001" x2="2987.929" y2="3038.4001" gradientTransform="matrix(1007 0 0 -1007 -3003323.5 3062160.75)">
							<stop  offset="0" style="stop-color:#1D1D1B"/>
							<stop  offset="0.1028" style="stop-color:#1D1D1B"/>
							<stop  offset="0.1667" style="stop-color:#27241C"/>
							<stop  offset="0.2759" style="stop-color:#423820"/>
							<stop  offset="0.4172" style="stop-color:#6F5926"/>
							<stop  offset="0.585" style="stop-color:#AC862E"/>
							<stop  offset="0.7736" style="stop-color:#FABE38"/>
							<stop  offset="0.7856" style="stop-color:#FFC239"/>
							<stop  offset="1" style="stop-color:#FFC239"/>
						</linearGradient>
						<rect x="4513.9" y="1929.4" class="st6" width="1007" height="1125"/>
					</g>
				</g>
			</g>
		</g>
		<g class="st1">
			<defs>
				<polygon id="SVGID_17_" points="3542.4,3038.4 5486.4,3038.4 4514.4,2602.6 				"/>
			</defs>
			<clipPath id="SVGID_18_">
				<use xlink:href="#SVGID_17_"  style="overflow:visible;"/>
			</clipPath>
			<g class="st7">
				<defs>
					<rect id="SVGID_19_" x="3507.7" y="2138.4" width="2017.9" height="1461"/>
				</defs>
				<clipPath id="SVGID_20_">
					<use xlink:href="#SVGID_19_"  style="overflow:visible;"/>
				</clipPath>
				<g style="clip-path:url(#SVGID_20_);">
					
						<image style="overflow:visible;" width="1000" height="724" xlink:href="54B2599F.jpg"  transform="matrix(2.0179 0 0 2.0179 3507.6985 2138.3611)">
					</image>
				</g>
			</g>
		</g>
		<g class="st1">
			<defs>
				<polygon id="SVGID_21_" points="2986.9,1929.4 2986.9,3038.4 3542.4,3038.4 4514.4,2602.6 4514.4,1929.4 				"/>
			</defs>
			<clipPath id="SVGID_22_">
				<use xlink:href="#SVGID_21_"  style="overflow:visible;"/>
			</clipPath>
			<g class="st8">
				<defs>
					<rect id="SVGID_23_" x="2610.7" y="1897.4" width="1903.8" height="1260.3"/>
				</defs>
				<clipPath id="SVGID_24_">
					<use xlink:href="#SVGID_23_"  style="overflow:visible;"/>
				</clipPath>
				<g transform="matrix(1 0 0 1 0 0)" style="clip-path:url(#SVGID_24_);">
					
						<image style="overflow:visible;" width="1000" height="662" xlink:href="54B2599D.jpg"  transform="matrix(1.9038 0 0 1.9038 2610.6594 1897.4)">
					</image>
				</g>
			</g>
		</g>
		<g class="st1">
			<defs>
				<rect id="SVGID_25_" x="2986.9" y="66.4" width="2500" height="1863"/>
			</defs>
			<clipPath id="SVGID_26_">
				<use xlink:href="#SVGID_25_"  style="overflow:visible;"/>
			</clipPath>
			<g class="st9">
				<defs>
					<rect id="SVGID_27_" x="2953.1" y="41.4" width="2567.7" height="1888"/>
				</defs>
				<clipPath id="SVGID_28_">
					<use xlink:href="#SVGID_27_"  style="overflow:visible;"/>
				</clipPath>
				<g id="BANNER.psd" class="st10">
					<defs>
						<rect id="SVGID_29_" x="2953.1" y="41.4" width="2567.7" height="1888"/>
					</defs>
					<clipPath id="SVGID_30_">
						<use xlink:href="#SVGID_29_"  style="overflow:visible;"/>
					</clipPath>
					<g style="clip-path:url(#SVGID_30_);">
						
							<image style="overflow:visible;" width="1700" height="1250" id="BANNER" xlink:href="54B259A3.png"  transform="matrix(1.5104 0 0 1.5104 2953.0891 41.4005)">
						</image>
					</g>
				</g>
			</g>
		</g>
		<g class="st11">
			<defs>
				<rect id="SVGID_31_" x="2986.9" y="66.4" width="2500" height="1863"/>
			</defs>
			<clipPath id="SVGID_32_" class="st12">
				<use xlink:href="#SVGID_31_"  style="overflow:visible;"/>
			</clipPath>
			<defs>
				<filter id="Adobe_OpacityMaskFilter_1_" filterUnits="userSpaceOnUse" x="2981.7" y="59.3" width="2510.6" height="1877.2">
					<feColorMatrix  type="matrix" values="1 0 0 0 0  0 1 0 0 0  0 0 1 0 0  0 0 0 1 0"/>
				</filter>
			</defs>
			<mask maskUnits="userSpaceOnUse" x="2981.7" y="59.3" width="2510.6" height="1877.2" id="SVGID_33_" class="st12">
				<g style="filter:url(#Adobe_OpacityMaskFilter_1_);">
					
						<linearGradient id="SVGID_34_" gradientUnits="userSpaceOnUse" x1="2986.929" y1="3038.3999" x2="2987.929" y2="3038.3999" gradientTransform="matrix(4.7726 -1684.7426 -1684.7426 -4.7726 5108901 5048556.5)">
						<stop  offset="0" style="stop-color:#000000"/>
						<stop  offset="1" style="stop-color:#FFFFFF"/>
					</linearGradient>
					<polygon class="st14" points="2981.7,1929.4 2986.9,59.3 5492.2,66.4 5486.9,1936.5 					"/>
				</g>
			</mask>
			
				<linearGradient id="SVGID_35_" gradientUnits="userSpaceOnUse" x1="2986.929" y1="3038.3999" x2="2987.929" y2="3038.3999" gradientTransform="matrix(4.7726 -1684.7426 -1684.7426 -4.7726 5108901 5048556.5)">
				<stop  offset="0" style="stop-color:#000000"/>
				<stop  offset="1" style="stop-color:#1D1D1B"/>
			</linearGradient>
			<polygon class="st15" points="2981.7,1929.4 2986.9,59.3 5492.2,66.4 5486.9,1936.5 			"/>
		</g>
		<g class="st11">
			<defs>
				<rect id="SVGID_36_" x="2986.9" y="1056.4" width="2500" height="873"/>
			</defs>
			<clipPath id="SVGID_37_" class="st12">
				<use xlink:href="#SVGID_36_"  style="overflow:visible;"/>
			</clipPath>
			<defs>
				<filter id="Adobe_OpacityMaskFilter_2_" filterUnits="userSpaceOnUse" x="2984.5" y="1049.3" width="2504.9" height="887.2">
					<feColorMatrix  type="matrix" values="1 0 0 0 0  0 1 0 0 0  0 0 1 0 0  0 0 0 1 0"/>
				</filter>
			</defs>
			<mask maskUnits="userSpaceOnUse" x="2984.5" y="1049.3" width="2504.9" height="887.2" id="SVGID_38_" class="st12">
				<g style="filter:url(#Adobe_OpacityMaskFilter_2_);">
					
						<linearGradient id="SVGID_39_" gradientUnits="userSpaceOnUse" x1="2986.929" y1="3038.4001" x2="2987.929" y2="3038.4001" gradientTransform="matrix(2.2167 -782.4915 -782.4915 -2.2167 2375136.75 2345875.75)">
						<stop  offset="0" style="stop-color:#FFFFFF"/>
						<stop  offset="8.858415e-02" style="stop-color:#F8F8F8"/>
						<stop  offset="0.2165" style="stop-color:#E5E5E5"/>
						<stop  offset="0.3683" style="stop-color:#C5C5C5"/>
						<stop  offset="0.5384" style="stop-color:#9A9A9A"/>
						<stop  offset="0.7238" style="stop-color:#616161"/>
						<stop  offset="0.919" style="stop-color:#1E1E1E"/>
						<stop  offset="1" style="stop-color:#000000"/>
					</linearGradient>
					<polygon class="st17" points="2984.5,1929.4 2986.9,1049.3 5489.4,1056.4 5486.9,1936.5 					"/>
				</g>
			</mask>
			
				<linearGradient id="SVGID_40_" gradientUnits="userSpaceOnUse" x1="2986.929" y1="3038.4001" x2="2987.929" y2="3038.4001" gradientTransform="matrix(2.2167 -782.4915 -782.4915 -2.2167 2375137 2345875.75)">
				<stop  offset="0" style="stop-color:#1D1D1B"/>
				<stop  offset="0.3788" style="stop-color:#161615"/>
				<stop  offset="0.9205" style="stop-color:#030303"/>
				<stop  offset="1" style="stop-color:#000000"/>
			</linearGradient>
			<polygon class="st18" points="2984.5,1929.4 2986.9,1049.3 5489.4,1056.4 5486.9,1936.5 			"/>
		</g>
		<g class="st1">
			<defs>
				<rect id="SVGID_41_" x="2986.9" y="66.4" width="2500" height="2972"/>
			</defs>
			<clipPath id="SVGID_42_">
				<use xlink:href="#SVGID_41_"  style="overflow:visible;"/>
			</clipPath>
			<g class="st19">
				<g>
					<defs>
						<rect id="SVGID_43_" x="4205.2" y="41.4" width="1314.1" height="1583.5"/>
					</defs>
					<clipPath id="SVGID_44_">
						<use xlink:href="#SVGID_43_"  style="overflow:visible;"/>
					</clipPath>
					<polygon class="st20" points="4790.1,1624.9 4205.2,450.4 4411.8,450.4 4783.9,1197.5 5230.6,231.2 4650.5,228.2 4948.2,720.7 
						4732,720.7 4321.5,41.4 5519.3,47.8 					"/>
				</g>
			</g>
		</g>
		<g class="st1">
			
				<text transform="matrix(1.4 0 0 1 3210.4402 511.3976)" class="st35" style="font-family:'Anton-Regular'; font-size:50.8183px;">EXCA</text>
		</g>
		<g class="st1">
			
				<text transform="matrix(1.4 0 0 1 3342.4148 511.3976)" class="st31" style="font-family:'Anton-Regular'; font-size:50.8183px;">DRILL</text>
		</g>
		<g class="st1">
			<text transform="matrix(1 0 0 1 3249.1033 542.6515)"><tspan x="0" y="0" class="st35" style="font-family:'Raleway-ThinItalic'; font-size:25.1913px;">I</tspan><tspan x="5.5" y="0" class="st35" style="font-family:'Raleway-ThinItalic'; font-size:25.1913px;">NT</tspan><tspan x="38.9" y="0" class="st35" style="font-family:'Raleway-ThinItalic'; font-size:25.1913px;">E</tspan><tspan x="53.8" y="0" class="st35" style="font-family:'Raleway-ThinItalic'; font-size:25.1913px;">RN</tspan><tspan x="88.3" y="0" class="st35" style="font-family:'Raleway-ThinItalic'; font-size:25.1913px;">A</tspan><tspan x="104" y="0" class="st35" style="font-family:'Raleway-ThinItalic'; font-size:25.1913px;">CI</tspan><tspan x="126.3" y="0" class="st35" style="font-family:'Raleway-ThinItalic'; font-size:25.1913px;">ONA</tspan><tspan x="180" y="0" class="st35" style="font-family:'Raleway-ThinItalic'; font-size:25.1913px;">L</tspan></text>
		</g>
		<polygon class="st0" points="3345.8,441.1 3318.1,385.4 3327.6,385.3 3345.5,421.2 3366.2,376.5 3339.3,376.3 3351.4,396.2 
			3341.3,396.2 3324.1,367.7 3379.6,368 		"/>
		<polygon class="st21" points="3423.3,395.2 3378.9,395.2 3378.9,386.6 3409.3,386.6 3365.6,299.8 3340.1,351.5 3335.1,342.2 
			3365.6,280.6 		"/>
		<polygon class="st22" points="3423.3,395.2 3378.9,395.2 3378.9,386.6 3409.3,386.6 3365.6,299.8 3340.1,351.5 3335.1,342.2 
			3365.6,280.6 		"/>
		<polygon class="st21" points="3314.3,395.2 3271.3,395.2 3309.2,317.9 3330.2,359.9 3320.6,359.9 3309.2,337.2 3285,386.6 
			3314.3,386.6 		"/>
		<polygon class="st22" points="3314.3,395.2 3271.3,395.2 3309.2,317.9 3330.2,359.9 3320.6,359.9 3309.2,337.2 3285,386.6 
			3314.3,386.6 		"/>
		<g class="st1">
			<text transform="matrix(1 0 0 1 3887.2551 354.4235)"><tspan x="0" y="0" class="st35" style="font-family:'Raleway-ThinItalic'; font-size:34.9649px;">NOS</tspan><tspan x="72.1" y="0" class="st35" style="font-family:'Raleway-ThinItalic'; font-size:34.9649px; letter-spacing:-1;">O</tspan><tspan x="96.2" y="0" class="st35" style="font-family:'Raleway-ThinItalic'; font-size:34.9649px;">TRO</tspan><tspan x="163.7" y="0" class="st35" style="font-family:'Raleway-ThinItalic'; font-size:34.9649px;">S</tspan></text>
		</g>
		<g class="st1">
			<text transform="matrix(1 0 0 1 4206.3452 354.4235)"><tspan x="0" y="0" class="st35" style="font-family:'Raleway-ThinItalic'; font-size:34.9649px;">SE</tspan><tspan x="41.2" y="0" class="st35" style="font-family:'Raleway-ThinItalic'; font-size:34.9649px;">R</tspan><tspan x="62.3" y="0" class="st35" style="font-family:'Raleway-ThinItalic'; font-size:34.9649px;">VICIO</tspan><tspan x="149.2" y="0" class="st35" style="font-family:'Raleway-ThinItalic'; font-size:34.9649px;">S</tspan></text>
		</g>
		<g class="st1">
			<text transform="matrix(1 0 0 1 4511.6938 354.1783)"><tspan x="0" y="0" class="st35" style="font-family:'Raleway-ThinItalic'; font-size:34.9649px;">E</tspan><tspan x="20.3" y="0" class="st35" style="font-family:'Raleway-ThinItalic'; font-size:34.9649px;">QUIPO</tspan><tspan x="125.5" y="0" class="st35" style="font-family:'Raleway-ThinItalic'; font-size:34.9649px;">S</tspan></text>
		</g>
		<g class="st1">
			<text transform="matrix(1 0 0 1 4777.147 354.1783)"><tspan x="0" y="0" class="st35" style="font-family:'Raleway-ThinItalic'; font-size:34.9649px;">C</tspan><tspan x="23.2" y="0" class="st35" style="font-family:'Raleway-ThinItalic'; font-size:34.9649px;">ON</tspan><tspan x="74.9" y="0" class="st35" style="font-family:'Raleway-ThinItalic'; font-size:34.9649px; letter-spacing:-2;">T</tspan><tspan x="92.5" y="0" class="st35" style="font-family:'Raleway-ThinItalic'; font-size:34.9649px;">A</tspan><tspan x="114.2" y="0" class="st35" style="font-family:'Raleway-ThinItalic'; font-size:34.9649px;">C</tspan><tspan x="137.4" y="0" class="st35" style="font-family:'Raleway-ThinItalic'; font-size:34.9649px;">T</tspan><tspan x="157" y="0" class="st35" style="font-family:'Raleway-ThinItalic'; font-size:34.9649px;">O</tspan></text>
		</g>
		<g class="st1">
			<text transform="matrix(1 0 0 1 5178.1245 353.7238)"><tspan x="0" y="0" class="st35" style="font-family:'Raleway-ThinItalic'; font-size:34.9649px;">P</tspan><tspan x="20.9" y="0" class="st35" style="font-family:'Raleway-ThinItalic'; font-size:34.9649px;">E</tspan></text>
		</g>
		<line class="st23" x1="4137.1" y1="303.9" x2="4137.1" y2="379.6"/>
		<line class="st23" x1="4444.1" y1="303.9" x2="4444.1" y2="379.6"/>
		<line class="st23" x1="4728.1" y1="303.9" x2="4728.1" y2="379.6"/>
		<polygon class="st21" points="5237,332.9 5266.3,332.9 5253.1,353.7 		"/>
		<g class="st1">
			<text transform="matrix(1 0 0 1 3776.2268 1425.0343)"><tspan x="0" y="0" class="st35" style="font-family:'Raleway-Thin'; font-size:45.7163px;">DIA</tspan><tspan x="74" y="0" class="st35" style="font-family:'Raleway-Thin'; font-size:45.7163px;">M</tspan><tspan x="114.6" y="0" class="st35" style="font-family:'Raleway-Thin'; font-size:45.7163px;">ANTIN</tspan><tspan x="254.9" y="0" class="st35" style="font-family:'Raleway-Thin'; font-size:45.7163px; letter-spacing:-1;">A</tspan><tspan x="284.5" y="0" class="st35" style="font-family:'Raleway-Thin'; font-size:45.7163px;"> </tspan><tspan x="296.7" y="0" class="st35" style="font-family:'Raleway-Thin'; font-size:45.7163px;">R</tspan><tspan x="326.1" y="0" class="st35" style="font-family:'Raleway-Thin'; font-size:45.7163px;">C,</tspan><tspan x="370.3" y="0" class="st35" style="font-family:'Raleway-Thin'; font-size:45.7163px;"> </tspan><tspan x="382.5" y="0" class="st35" style="font-family:'Raleway-Thin'; font-size:45.7163px;">G</tspan><tspan x="415.6" y="0" class="st35" style="font-family:'Raleway-Thin'; font-size:45.7163px;">E</tspan><tspan x="443.4" y="0" class="st35" style="font-family:'Raleway-Thin'; font-size:45.7163px;">O</tspan><tspan x="477.4" y="0" class="st35" style="font-family:'Raleway-Thin'; font-size:45.7163px;">T</tspan><tspan x="505" y="0" class="st35" style="font-family:'Raleway-Thin'; font-size:45.7163px;">É</tspan><tspan x="532.9" y="0" class="st35" style="font-family:'Raleway-Thin'; font-size:45.7163px;">C</tspan><tspan x="565" y="0" class="st35" style="font-family:'Raleway-Thin'; font-size:45.7163px;">N</tspan><tspan x="600.6" y="0" class="st35" style="font-family:'Raleway-Thin'; font-size:45.7163px;">I</tspan><tspan x="610.8" y="0" class="st35" style="font-family:'Raleway-Thin'; font-size:45.7163px;">C</tspan><tspan x="642.5" y="0" class="st35" style="font-family:'Raleway-Thin'; font-size:45.7163px;">A</tspan><tspan x="673.5" y="0" class="st35" style="font-family:'Raleway-Thin'; font-size:45.7163px;">,</tspan><tspan x="685.6" y="0" class="st35" style="font-family:'Raleway-Thin'; font-size:45.7163px;"> </tspan><tspan x="697.8" y="0" class="st35" style="font-family:'Raleway-Thin'; font-size:45.7163px;">C</tspan><tspan x="729.5" y="0" class="st35" style="font-family:'Raleway-Thin'; font-size:45.7163px;">O</tspan><tspan x="764.3" y="0" class="st35" style="font-family:'Raleway-Thin'; font-size:45.7163px;">R</tspan><tspan x="793.5" y="0" class="st35" style="font-family:'Raleway-Thin'; font-size:45.7163px;">TE</tspan><tspan x="849.5" y="0" class="st35" style="font-family:'Raleway-Thin'; font-size:45.7163px;"> D</tspan><tspan x="894.4" y="0" class="st35" style="font-family:'Raleway-Thin'; font-size:45.7163px;">E</tspan><tspan x="922.8" y="0" class="st35" style="font-family:'Raleway-Thin'; font-size:45.7163px;"> </tspan></text>
		</g>
		<g class="st1">
			<text transform="matrix(1 0 0 1 3715.0583 1482.4083)"><tspan x="0" y="0" class="st35" style="font-family:'Raleway-Thin'; font-size:45.7163px;">MU</tspan><tspan x="75.3" y="0" class="st35" style="font-family:'Raleway-Thin'; font-size:45.7163px;">E</tspan><tspan x="103.8" y="0" class="st35" style="font-family:'Raleway-Thin'; font-size:45.7163px;">S</tspan><tspan x="131.5" y="0" class="st35" style="font-family:'Raleway-Thin'; font-size:45.7163px;">T</tspan><tspan x="159.1" y="0" class="st35" style="font-family:'Raleway-Thin'; font-size:45.7163px;">R</tspan><tspan x="188.7" y="0" class="st35" style="font-family:'Raleway-Thin'; font-size:45.7163px;">A,</tspan><tspan x="231.8" y="0" class="st35" style="font-family:'Raleway-Thin'; font-size:45.7163px;"> </tspan><tspan x="243.9" y="0" class="st35" style="font-family:'Raleway-Thin'; font-size:45.7163px;">L</tspan><tspan x="269.8" y="0" class="st35" style="font-family:'Raleway-Thin'; font-size:45.7163px;">O</tspan><tspan x="304.6" y="0" class="st35" style="font-family:'Raleway-Thin'; font-size:45.7163px;">GU</tspan><tspan x="372.5" y="0" class="st35" style="font-family:'Raleway-Thin'; font-size:45.7163px;">É</tspan><tspan x="400.3" y="0" class="st35" style="font-family:'Raleway-Thin'; font-size:45.7163px;">O</tspan><tspan x="434.7" y="0" class="st35" style="font-family:'Raleway-Thin'; font-size:45.7163px;">,</tspan><tspan x="446.8" y="0" class="st35" style="font-family:'Raleway-Thin'; font-size:45.7163px; letter-spacing:-1;"> </tspan><tspan x="457.7" y="0" class="st35" style="font-family:'Raleway-Thin'; font-size:45.7163px;">T</tspan><tspan x="484.5" y="0" class="st35" style="font-family:'Raleway-Thin'; font-size:45.7163px;">O</tspan><tspan x="519.3" y="0" class="st35" style="font-family:'Raleway-Thin'; font-size:45.7163px;">P</tspan><tspan x="547.8" y="0" class="st35" style="font-family:'Raleway-Thin'; font-size:45.7163px;">O</tspan><tspan x="582.6" y="0" class="st35" style="font-family:'Raleway-Thin'; font-size:45.7163px;">GRA</tspan><tspan x="676.4" y="0" class="st35" style="font-family:'Raleway-Thin'; font-size:45.7163px;">F</tspan><tspan x="704.1" y="0" class="st35" style="font-family:'Raleway-Thin'; font-size:45.7163px;">Í</tspan><tspan x="714.3" y="0" class="st35" style="font-family:'Raleway-Thin'; font-size:45.7163px; letter-spacing:-1;">A</tspan><tspan x="743.9" y="0" class="st35" style="font-family:'Raleway-Thin'; font-size:45.7163px; letter-spacing:-1;"> </tspan><tspan x="754.6" y="0" class="st35" style="font-family:'Raleway-Thin'; font-size:45.7163px;">Y</tspan><tspan x="783.4" y="0" class="st35" style="font-family:'Raleway-Thin'; font-size:45.7163px;"> </tspan><tspan x="795.5" y="0" class="st35" style="font-family:'Raleway-Thin'; font-size:45.7163px;">MU</tspan><tspan x="870.9" y="0" class="st35" style="font-family:'Raleway-Thin'; font-size:45.7163px;">E</tspan><tspan x="899.3" y="0" class="st35" style="font-family:'Raleway-Thin'; font-size:45.7163px;">STR</tspan><tspan x="984.2" y="0" class="st35" style="font-family:'Raleway-Thin'; font-size:45.7163px;">E</tspan><tspan x="1012" y="0" class="st35" style="font-family:'Raleway-Thin'; font-size:45.7163px;">O</tspan></text>
		</g>
		<rect x="4001.4" y="1211.7" class="st0" width="529.5" height="94.7"/>
		<g class="st1">
			<defs>
				<rect id="SVGID_45_" x="2986.9" y="66.4" width="2500" height="2972"/>
			</defs>
			<clipPath id="SVGID_46_">
				<use xlink:href="#SVGID_45_"  style="overflow:visible;"/>
			</clipPath>
			<g class="st24">
				<g>
					<defs>
						<rect id="SVGID_47_" x="4001.4" y="1211.8" width="529.5" height="94.7"/>
					</defs>
					<clipPath id="SVGID_48_">
						<use xlink:href="#SVGID_47_"  style="overflow:visible;"/>
					</clipPath>
					<g class="st25">
						<defs>
							<rect id="SVGID_49_" x="4001.4" y="1211.7" width="529.5" height="94.7"/>
						</defs>
						<clipPath id="SVGID_50_">
							<use xlink:href="#SVGID_49_"  style="overflow:visible;"/>
						</clipPath>
						<defs>
							<filter id="Adobe_OpacityMaskFilter_3_" filterUnits="userSpaceOnUse" x="4001.4" y="1211.7" width="529.5" height="94.7">
								<feColorMatrix  type="matrix" values="1 0 0 0 0  0 1 0 0 0  0 0 1 0 0  0 0 0 1 0"/>
							</filter>
						</defs>
						<mask maskUnits="userSpaceOnUse" x="4001.4" y="1211.7" width="529.5" height="94.7" id="SVGID_51_">
							<g class="st26">
								
									<linearGradient id="SVGID_52_" gradientUnits="userSpaceOnUse" x1="2986.929" y1="3038.4001" x2="2987.929" y2="3038.4001" gradientTransform="matrix(529.4643 0 0 -529.4643 -1577470.875 1609983.5)">
									<stop  offset="0" style="stop-color:#FFFFFF"/>
									<stop  offset="0.1028" style="stop-color:#FFFFFF"/>
									<stop  offset="0.1659" style="stop-color:#F5F5F5"/>
									<stop  offset="0.2738" style="stop-color:#DADADA"/>
									<stop  offset="0.4135" style="stop-color:#ADADAD"/>
									<stop  offset="0.5794" style="stop-color:#707070"/>
									<stop  offset="0.7657" style="stop-color:#222222"/>
									<stop  offset="0.7856" style="stop-color:#1A1A1A"/>
									<stop  offset="1" style="stop-color:#1A1A1A"/>
								</linearGradient>
								<rect x="4001.4" y="1211.7" class="st27" width="529.5" height="94.7"/>
							</g>
						</mask>
						
							<linearGradient id="SVGID_53_" gradientUnits="userSpaceOnUse" x1="2986.929" y1="3038.4001" x2="2987.929" y2="3038.4001" gradientTransform="matrix(529.4643 0 0 -529.4643 -1577470.875 1609983.5)">
							<stop  offset="0" style="stop-color:#1D1D1B"/>
							<stop  offset="0.1028" style="stop-color:#1D1D1B"/>
							<stop  offset="0.1667" style="stop-color:#27241C"/>
							<stop  offset="0.2759" style="stop-color:#423820"/>
							<stop  offset="0.4172" style="stop-color:#6F5926"/>
							<stop  offset="0.585" style="stop-color:#AC862E"/>
							<stop  offset="0.7736" style="stop-color:#FABE38"/>
							<stop  offset="0.7856" style="stop-color:#FFC239"/>
							<stop  offset="1" style="stop-color:#FFC239"/>
						</linearGradient>
						<rect x="4001.4" y="1211.7" class="st28" width="529.5" height="94.7"/>
					</g>
				</g>
			</g>
		</g>
		<g class="st1">
			<text transform="matrix(1.4 0 0 1 3861.4573 1196.798)"><tspan x="0" y="0" class="st35" style="font-family:'Anton-Regular'; font-size:79.1243px;">MÁS D</tspan><tspan x="193" y="0" class="st35" style="font-family:'Anton-Regular'; font-size:79.1243px;">E</tspan><tspan x="226" y="0" class="st35" style="font-family:'Anton-Regular'; font-size:79.1243px;"> 10 AÑOS</tspan><tspan x="483.5" y="0" class="st35" style="font-family:'Anton-Regular'; font-size:79.1243px;"> </tspan></text>
		</g>
		<g class="st1">
			<text transform="matrix(1.4 0 0 1 3880.2888 1291.7472)"><tspan x="0" y="0" class="st35" style="font-family:'Anton-Regular'; font-size:79.1243px;">D</tspan><tspan x="39.3" y="0" class="st35" style="font-family:'Anton-Regular'; font-size:79.1243px;">E</tspan><tspan x="72.3" y="0" class="st35" style="font-family:'Anton-Regular'; font-size:79.1243px;"> </tspan><tspan x="91.1" y="0" class="st35" style="font-family:'Anton-Regular'; font-size:79.1243px;">EX</tspan><tspan x="162.8" y="0" class="st35" style="font-family:'Anton-Regular'; font-size:79.1243px;">P</tspan><tspan x="200.5" y="0" class="st35" style="font-family:'Anton-Regular'; font-size:79.1243px;">ER</tspan><tspan x="271.6" y="0" class="st35" style="font-family:'Anton-Regular'; font-size:79.1243px;">I</tspan><tspan x="289.9" y="0" class="st35" style="font-family:'Anton-Regular'; font-size:79.1243px;">E</tspan><tspan x="322.9" y="0" class="st35" style="font-family:'Anton-Regular'; font-size:79.1243px;">NC</tspan><tspan x="400.4" y="0" class="st35" style="font-family:'Anton-Regular'; font-size:79.1243px;">I</tspan><tspan x="418.8" y="0" class="st35" style="font-family:'Anton-Regular'; font-size:79.1243px;">A</tspan></text>
		</g>
		<g class="st1">
			<defs>
				<rect id="SVGID_54_" x="2986.9" y="66.4" width="2500" height="2972"/>
			</defs>
			<clipPath id="SVGID_55_">
				<use xlink:href="#SVGID_54_"  style="overflow:visible;"/>
			</clipPath>
		</g>
		<g class="st1">
			<text transform="matrix(1.4 0 0 1 4633.9292 2170.3689)"><tspan x="0" y="0" class="st35" style="font-family:'Anton-Regular'; font-size:62.5px;">NOSOT</tspan><tspan x="146.7" y="0" class="st35" style="font-family:'Anton-Regular'; font-size:62.5px;">R</tspan><tspan x="176.8" y="0" class="st35" style="font-family:'Anton-Regular'; font-size:62.5px;">O</tspan><tspan x="207.4" y="0" class="st35" style="font-family:'Anton-Regular'; font-size:62.5px;">S</tspan></text>
		</g>
		<g class="st1">
			<text transform="matrix(1 0 0 1 4629.1421 2228.9402)"><tspan x="0" y="0" class="st35" style="font-family:'Raleway-Thin'; font-size:27.6122px;">S</tspan><tspan x="16.8" y="0" class="st35" style="font-family:'Raleway-Thin'; font-size:27.6122px;">omo</tspan><tspan x="74.5" y="0" class="st35" style="font-family:'Raleway-Thin'; font-size:27.6122px;">s u</tspan><tspan x="111.1" y="0" class="st35" style="font-family:'Raleway-Thin'; font-size:27.6122px;">n</tspan><tspan x="126.8" y="0" class="st35" style="font-family:'Raleway-Thin'; font-size:27.6122px;">a e</tspan><tspan x="164.8" y="0" class="st35" style="font-family:'Raleway-Thin'; font-size:27.6122px;">m</tspan><tspan x="189.9" y="0" class="st35" style="font-family:'Raleway-Thin'; font-size:27.6122px;">p</tspan><tspan x="206.7" y="0" class="st35" style="font-family:'Raleway-Thin'; font-size:27.6122px;">r</tspan><tspan x="215.5" y="0" class="st35" style="font-family:'Raleway-Thin'; font-size:27.6122px;">esa especiali</tspan><tspan x="375.6" y="0" class="st35" style="font-family:'Raleway-Thin'; font-size:27.6122px;">z</tspan><tspan x="389.2" y="0" class="st35" style="font-family:'Raleway-Thin'; font-size:27.6122px;">ada</tspan><tspan x="435.2" y="0" class="st35" style="font-family:'Raleway-Thin'; font-size:27.6122px;"> </tspan><tspan x="441.8" y="0" class="st35" style="font-family:'Raleway-Thin'; font-size:27.6122px;">y</tspan><tspan x="456" y="0" class="st35" style="font-family:'Raleway-Thin'; font-size:27.6122px;"> </tspan><tspan x="463.3" y="0" class="st35" style="font-family:'Raleway-Thin'; font-size:27.6122px;">c</tspan><tspan x="478.2" y="0" class="st35" style="font-family:'Raleway-Thin'; font-size:27.6122px;">o</tspan><tspan x="494.5" y="0" class="st35" style="font-family:'Raleway-Thin'; font-size:27.6122px;">n</tspan><tspan x="510.2" y="0" class="st35" style="font-family:'Raleway-Thin'; font-size:27.6122px;"> </tspan></text>
		</g>
		<g class="st1">
			<text transform="matrix(1 0 0 1 4629.1421 2260.9148)"><tspan x="0" y="0" class="st35" style="font-family:'Raleway-Thin'; font-size:27.6122px;">a</tspan><tspan x="14.6" y="0" class="st35" style="font-family:'Raleway-Thin'; font-size:27.6122px;">m</tspan><tspan x="39.8" y="0" class="st35" style="font-family:'Raleway-Thin'; font-size:27.6122px;">plia </tspan><tspan x="90.6" y="0" class="st35" style="font-family:'Raleway-Thin'; font-size:27.6122px;">e</tspan><tspan x="106.1" y="0" class="st35" style="font-family:'Raleway-Thin'; font-size:27.6122px;">xper</tspan><tspan x="161.4" y="0" class="st35" style="font-family:'Raleway-Thin'; font-size:27.6122px;">i</tspan><tspan x="166.7" y="0" class="st35" style="font-family:'Raleway-Thin'; font-size:27.6122px;">encia; </tspan><tspan x="245.6" y="0" class="st35" style="font-family:'Raleway-Thin'; font-size:27.6122px;">c</tspan><tspan x="260.4" y="0" class="st35" style="font-family:'Raleway-Thin'; font-size:27.6122px;">o</tspan><tspan x="276.7" y="0" class="st35" style="font-family:'Raleway-Thin'; font-size:27.6122px;">nstit</tspan><tspan x="327.5" y="0" class="st35" style="font-family:'Raleway-Thin'; font-size:27.6122px;">u</tspan><tspan x="343.5" y="0" class="st35" style="font-family:'Raleway-Thin'; font-size:27.6122px;">ida para brin</tspan><tspan x="496.9" y="0" class="st35" style="font-family:'Raleway-Thin'; font-size:27.6122px;">d</tspan><tspan x="513.7" y="0" class="st35" style="font-family:'Raleway-Thin'; font-size:27.6122px;">a</tspan><tspan x="528.3" y="0" class="st35" style="font-family:'Raleway-Thin'; font-size:27.6122px;">r</tspan><tspan x="536.7" y="0" class="st35" style="font-family:'Raleway-Thin'; font-size:27.6122px;"> </tspan></text>
		</g>
		<g class="st1">
			<text transform="matrix(1 0 0 1 4629.1421 2292.8894)"><tspan x="0" y="0" class="st35" style="font-family:'Raleway-Thin'; font-size:27.6122px;">serv</tspan><tspan x="52.7" y="0" class="st35" style="font-family:'Raleway-Thin'; font-size:27.6122px;">i</tspan><tspan x="58" y="0" class="st35" style="font-family:'Raleway-Thin'; font-size:27.6122px;">ci</tspan><tspan x="78.4" y="0" class="st35" style="font-family:'Raleway-Thin'; font-size:27.6122px;">o</tspan><tspan x="94.7" y="0" class="st35" style="font-family:'Raleway-Thin'; font-size:27.6122px;">s en e</tspan><tspan x="170.3" y="0" class="st35" style="font-family:'Raleway-Thin'; font-size:27.6122px;">l</tspan><tspan x="176.2" y="0" class="st35" style="font-family:'Raleway-Thin'; font-size:27.6122px;"> sec</tspan><tspan x="227.7" y="0" class="st35" style="font-family:'Raleway-Thin'; font-size:27.6122px;">t</tspan><tspan x="235.8" y="0" class="st35" style="font-family:'Raleway-Thin'; font-size:27.6122px;">o</tspan><tspan x="252.1" y="0" class="st35" style="font-family:'Raleway-Thin'; font-size:27.6122px;">r</tspan><tspan x="260.5" y="0" class="st35" style="font-family:'Raleway-Thin'; font-size:27.6122px;"> </tspan><tspan x="267.9" y="0" class="st35" style="font-family:'Raleway-Thin'; font-size:27.6122px;">m</tspan><tspan x="293" y="0" class="st35" style="font-family:'Raleway-Thin'; font-size:27.6122px;">i</tspan><tspan x="298.4" y="0" class="st35" style="font-family:'Raleway-Thin'; font-size:27.6122px;">n</tspan><tspan x="314.1" y="0" class="st35" style="font-family:'Raleway-Thin'; font-size:27.6122px;">e</tspan><tspan x="330.1" y="0" class="st35" style="font-family:'Raleway-Thin'; font-size:27.6122px;">r</tspan><tspan x="338.9" y="0" class="st35" style="font-family:'Raleway-Thin'; font-size:27.6122px;">o</tspan><tspan x="355.2" y="0" class="st35" style="font-family:'Raleway-Thin'; font-size:27.6122px;"> </tspan><tspan x="361.7" y="0" class="st35" style="font-family:'Raleway-Thin'; font-size:27.6122px;">y</tspan><tspan x="376" y="0" class="st35" style="font-family:'Raleway-Thin'; font-size:27.6122px;"> </tspan><tspan x="383.3" y="0" class="st35" style="font-family:'Raleway-Thin'; font-size:27.6122px;">c</tspan><tspan x="398.2" y="0" class="st35" style="font-family:'Raleway-Thin'; font-size:27.6122px;">o</tspan><tspan x="414.4" y="0" class="st35" style="font-family:'Raleway-Thin'; font-size:27.6122px;">nstr</tspan><tspan x="460.7" y="0" class="st35" style="font-family:'Raleway-Thin'; font-size:27.6122px;">u</tspan><tspan x="476.7" y="0" class="st35" style="font-family:'Raleway-Thin'; font-size:27.6122px;">c</tspan><tspan x="491.5" y="0" class="st35" style="font-family:'Raleway-Thin'; font-size:27.6122px;">ci</tspan><tspan x="511.9" y="0" class="st35" style="font-family:'Raleway-Thin'; font-size:27.6122px;">ó</tspan><tspan x="528.2" y="0" class="st35" style="font-family:'Raleway-Thin'; font-size:27.6122px;">n</tspan><tspan x="543.9" y="0" class="st35" style="font-family:'Raleway-Thin'; font-size:27.6122px;">,</tspan><tspan x="551.2" y="0" class="st35" style="font-family:'Raleway-Thin'; font-size:27.6122px;"> </tspan></text>
		</g>
		<g class="st1">
			<text transform="matrix(1 0 0 1 4629.1421 2324.865)"><tspan x="0" y="0" class="st35" style="font-family:'Raleway-Thin'; font-size:27.6122px;">F</tspan><tspan x="15.8" y="0" class="st35" style="font-family:'Raleway-Thin'; font-size:27.6122px;">u</tspan><tspan x="31.9" y="0" class="st35" style="font-family:'Raleway-Thin'; font-size:27.6122px;">e f</tspan><tspan x="63.6" y="0" class="st35" style="font-family:'Raleway-Thin'; font-size:27.6122px;">u</tspan><tspan x="79.7" y="0" class="st35" style="font-family:'Raleway-Thin'; font-size:27.6122px;">ndada ha</tspan><tspan x="195.9" y="0" class="st35" style="font-family:'Raleway-Thin'; font-size:27.6122px;">c</tspan><tspan x="210.8" y="0" class="st35" style="font-family:'Raleway-Thin'; font-size:27.6122px;">e </tspan><tspan x="234.2" y="0" class="st35" style="font-family:'Raleway-Thin'; font-size:27.6122px;">m</tspan><tspan x="259.4" y="0" class="st35" style="font-family:'Raleway-Thin'; font-size:27.6122px;">ás de 10 añ</tspan><tspan x="399.8" y="0" class="st35" style="font-family:'Raleway-Thin'; font-size:27.6122px;">o</tspan><tspan x="416.1" y="0" class="st35" style="font-family:'Raleway-Thin'; font-size:27.6122px;">s</tspan><tspan x="429.2" y="0" class="st35" style="font-family:'Raleway-Thin'; font-size:27.6122px;"> </tspan><tspan x="435.8" y="0" class="st35" style="font-family:'Raleway-Thin'; font-size:27.6122px;">y</tspan><tspan x="450" y="0" class="st35" style="font-family:'Raleway-Thin'; font-size:27.6122px;"> desde</tspan><tspan x="536.2" y="0" class="st35" style="font-family:'Raleway-Thin'; font-size:27.6122px;"> </tspan></text>
		</g>
		<g class="st1">
			<text transform="matrix(1 0 0 1 4629.1421 2356.8396)"><tspan x="0" y="0" class="st35" style="font-family:'Raleway-Thin'; font-size:27.6122px;">e</tspan><tspan x="16" y="0" class="st35" style="font-family:'Raleway-Thin'; font-size:27.6122px;">n</tspan><tspan x="31.6" y="0" class="st35" style="font-family:'Raleway-Thin'; font-size:27.6122px;">t</tspan><tspan x="39.7" y="0" class="st35" style="font-family:'Raleway-Thin'; font-size:27.6122px;">o</tspan><tspan x="56" y="0" class="st35" style="font-family:'Raleway-Thin'; font-size:27.6122px;">n</tspan><tspan x="71.8" y="0" class="st35" style="font-family:'Raleway-Thin'; font-size:27.6122px;">c</tspan><tspan x="86.6" y="0" class="st35" style="font-family:'Raleway-Thin'; font-size:27.6122px;">es s</tspan><tspan x="136.3" y="0" class="st35" style="font-family:'Raleway-Thin'; font-size:27.6122px;">u</tspan><tspan x="152.3" y="0" class="st35" style="font-family:'Raleway-Thin'; font-size:27.6122px;">s </tspan><tspan x="172.8" y="0" class="st35" style="font-family:'Raleway-Thin'; font-size:27.6122px;">o</tspan><tspan x="189.1" y="0" class="st35" style="font-family:'Raleway-Thin'; font-size:27.6122px;">peraci</tspan><tspan x="265.9" y="0" class="st35" style="font-family:'Raleway-Thin'; font-size:27.6122px;">on</tspan><tspan x="297.9" y="0" class="st35" style="font-family:'Raleway-Thin'; font-size:27.6122px;">es ha</tspan><tspan x="364.8" y="0" class="st35" style="font-family:'Raleway-Thin'; font-size:27.6122px;">n</tspan><tspan x="380.5" y="0" class="st35" style="font-family:'Raleway-Thin'; font-size:27.6122px;"> </tspan><tspan x="387.8" y="0" class="st35" style="font-family:'Raleway-Thin'; font-size:27.6122px;">t</tspan><tspan x="396" y="0" class="st35" style="font-family:'Raleway-Thin'; font-size:27.6122px;">enid</tspan><tspan x="449.9" y="0" class="st35" style="font-family:'Raleway-Thin'; font-size:27.6122px;">o</tspan><tspan x="466.2" y="0" class="st35" style="font-family:'Raleway-Thin'; font-size:27.6122px;"> </tspan><tspan x="473.5" y="0" class="st35" style="font-family:'Raleway-Thin'; font-size:27.6122px;">u</tspan><tspan x="489.5" y="0" class="st35" style="font-family:'Raleway-Thin'; font-size:27.6122px;">n</tspan><tspan x="505.3" y="0" class="st35" style="font-family:'Raleway-Thin'; font-size:27.6122px;"> </tspan></text>
		</g>
		<g class="st1">
			<text transform="matrix(1 0 0 1 4629.1421 2388.8142)"><tspan x="0" y="0" class="st35" style="font-family:'Raleway-Thin'; font-size:27.6122px;">c</tspan><tspan x="15" y="0" class="st35" style="font-family:'Raleway-Thin'; font-size:27.6122px;">r</tspan><tspan x="23.9" y="0" class="st35" style="font-family:'Raleway-Thin'; font-size:27.6122px;">eci</tspan><tspan x="60.3" y="0" class="st35" style="font-family:'Raleway-Thin'; font-size:27.6122px;">m</tspan><tspan x="85.5" y="0" class="st35" style="font-family:'Raleway-Thin'; font-size:27.6122px;">ie</tspan><tspan x="106.9" y="0" class="st35" style="font-family:'Raleway-Thin'; font-size:27.6122px;">n</tspan><tspan x="122.6" y="0" class="st35" style="font-family:'Raleway-Thin'; font-size:27.6122px;">t</tspan><tspan x="130.7" y="0" class="st35" style="font-family:'Raleway-Thin'; font-size:27.6122px;">o </tspan><tspan x="154.3" y="0" class="st35" style="font-family:'Raleway-Thin'; font-size:27.6122px;">s</tspan><tspan x="167.5" y="0" class="st35" style="font-family:'Raleway-Thin'; font-size:27.6122px;">o</tspan><tspan x="183.8" y="0" class="st35" style="font-family:'Raleway-Thin'; font-size:27.6122px;">s</tspan><tspan x="196.8" y="0" class="st35" style="font-family:'Raleway-Thin'; font-size:27.6122px;">t</tspan><tspan x="204.9" y="0" class="st35" style="font-family:'Raleway-Thin'; font-size:27.6122px;">enid</tspan><tspan x="258.9" y="0" class="st35" style="font-family:'Raleway-Thin'; font-size:27.6122px;">o.</tspan></text>
		</g>
		<g class="st1">
			<text transform="matrix(1 0 0 1 4634.7788 2467.6941)"><tspan x="0" y="0" class="st35" style="font-family:'Raleway-Thin'; font-size:28.2591px;">M</tspan><tspan x="25" y="0" class="st35" style="font-family:'Raleway-Thin'; font-size:28.2591px;">á</tspan><tspan x="39.9" y="0" class="st35" style="font-family:'Raleway-Thin'; font-size:28.2591px;">s</tspan><tspan x="53.3" y="0" class="st35" style="font-family:'Raleway-Thin'; font-size:28.2591px;"> i</tspan><tspan x="66.3" y="0" class="st35" style="font-family:'Raleway-Thin'; font-size:28.2591px;">n</tspan><tspan x="82.3" y="0" class="st35" style="font-family:'Raleway-Thin'; font-size:28.2591px;">f</tspan><tspan x="90.7" y="0" class="st35" style="font-family:'Raleway-Thin'; font-size:28.2591px;">o</tspan><tspan x="107.4" y="0" class="st35" style="font-family:'Raleway-Thin'; font-size:28.2591px;">r</tspan><tspan x="116.6" y="0" class="st35" style="font-family:'Raleway-Thin'; font-size:28.2591px;">mació</tspan><tspan x="194.8" y="0" class="st35" style="font-family:'Raleway-Thin'; font-size:28.2591px;">n</tspan></text>
		</g>
		<polygon class="st29" points="4634.8,2470.5 4634.8,2470.5 4857.7,2470.5 		"/>
	</g>
	<g>
		<defs>
			<rect id="SVGID_56_" x="2988.6" y="-288.6" width="2496.7" height="290"/>
		</defs>
		<clipPath id="SVGID_57_">
			<use xlink:href="#SVGID_56_"  style="overflow:visible;"/>
		</clipPath>
		<g class="st30">
			<polygon class="st31" points="2985.6,1.7 4529.6,-107.9 2985.6,-288.9 			"/>
		</g>
	</g>
	<g>
		<defs>
			<polygon id="SVGID_9_" points="3542.4,3038.4 5486.4,3038.4 4514.4,2602.6 			"/>
		</defs>
		<clipPath id="SVGID_58_">
			<use xlink:href="#SVGID_9_"  style="overflow:visible;"/>
		</clipPath>
		<g class="st32">
			<defs>
				<rect id="SVGID_11_" x="3507.7" y="2138.4" width="2017.9" height="1461"/>
			</defs>
			<clipPath id="SVGID_59_">
				<use xlink:href="#SVGID_11_"  style="overflow:visible;"/>
			</clipPath>
			<g style="clip-path:url(#SVGID_59_);">
				
					<image style="overflow:visible;" width="1000" height="724" xlink:href="54B259A5.jpg"  transform="matrix(2.0179 0 0 2.0179 3507.6985 2138.3611)">
				</image>
			</g>
		</g>
	</g>
	<g>
		<defs>
			<polygon id="SVGID_13_" points="2986.9,1929.4 2986.9,3038.4 3542.4,3038.4 4514.4,2602.6 4514.4,1929.4 			"/>
		</defs>
		<clipPath id="SVGID_60_">
			<use xlink:href="#SVGID_13_"  style="overflow:visible;"/>
		</clipPath>
		<g class="st33">
			<defs>
				<rect id="SVGID_15_" x="2610.7" y="1897.4" width="1903.8" height="1260.3"/>
			</defs>
			<clipPath id="SVGID_61_">
				<use xlink:href="#SVGID_15_"  style="overflow:visible;"/>
			</clipPath>
			<g transform="matrix(1 0 0 1 0 0)" style="clip-path:url(#SVGID_61_);">
				
					<image style="overflow:visible;" width="1000" height="662" xlink:href="54B259A7.jpg"  transform="matrix(1.9038 0 0 1.9038 2610.6594 1897.4)">
				</image>
			</g>
		</g>
	</g>
	<g>
		<g>
			<defs>
				<rect id="SVGID_3_" y="-3" width="1314.1" height="1583.5"/>
			</defs>
			<clipPath id="SVGID_62_">
				<use xlink:href="#SVGID_3_"  style="overflow:visible;"/>
			</clipPath>
			<polygon class="st34" points="584.9,1580.5 0,406 206.7,406 578.7,1153.1 1025.5,186.8 445.3,183.8 743,676.3 526.8,676.3 
				116.3,-3 1314.1,3.4 			"/>
		</g>
	</g>
</g>
<g id="Capa_2">
	<g>
		<path class="st35" d="M2082.4,705.6v-43.7h24.5v8.4h-12v8.5h11.5v8.2h-11.5v10h12.8v8.5H2082.4z"/>
		<path class="st35" d="M2110,705.6l6.5-23.2l-5.2-20.5h12l3.2,15l2.8-15h12l-5.3,20.5l6.5,23.2h-12.4l-3.8-17.1l-3.9,17.1H2110z"/>
		<path class="st35" d="M2149.7,703c-2.7-2-4-4.7-4-8.2v-20.1c0-4.3,1.2-7.6,3.6-9.8c2.4-2.2,6.2-3.3,11.4-3.3
			c4.5,0,8.1,0.9,10.9,2.6c2.8,1.8,4.1,4.3,4.1,7.6v7.5h-12.2v-6.5c0-1.3-0.2-2.1-0.6-2.6c-0.4-0.5-1.2-0.7-2.2-0.7
			c-1.1,0-1.8,0.3-2.2,0.8c-0.4,0.5-0.6,1.3-0.6,2.4v21.9c0,1.2,0.2,2,0.7,2.5c0.5,0.5,1.2,0.8,2.1,0.8c1.9,0,2.8-1.1,2.8-3.3v-7.9
			h12.3v8.2c0,7.3-5.1,11-15.4,11C2156,706,2152.4,705,2149.7,703z"/>
		<path class="st35" d="M2178.3,705.6l5.9-43.7h20.7l5.8,43.7h-11.6l-0.9-7.1h-7.4l-0.7,7.1H2178.3z M2191.8,691.5h5.5l-2.7-22.2
			h-0.6L2191.8,691.5z"/>
	</g>
	<g>
		<path class="st31" d="M2214.4,661.9h16.9c4.4,0,7.6,0.9,9.8,2.6c2.2,1.7,3.3,4.3,3.3,7.7l0.1,20.4c0,4.3-1,7.5-3.1,9.7
			c-2.1,2.2-5.7,3.3-10.6,3.3h-16.4V661.9z M2228.9,697.8c2.2,0,3.3-0.8,3.3-2.3V673c0-1-0.1-1.7-0.3-2.2c-0.2-0.5-0.6-0.8-1.2-1
			c-0.6-0.2-1.4-0.3-2.6-0.3h-1.4v28.3H2228.9z"/>
		<path class="st31" d="M2249.5,661.9h18.8c3,0,5.3,0.5,6.9,1.4c1.6,1,2.7,2.3,3.3,4.1c0.6,1.7,0.9,4,0.9,6.7c0,2.5-0.5,4.4-1.4,5.8
			c-0.9,1.4-2.5,2.4-4.7,2.9c1.9,0.3,3.2,0.9,4,2c0.8,1.1,1.2,2.5,1.2,4.3l-0.1,16.5h-12v-17.1c0-1.2-0.3-2-1-2.3
			c-0.7-0.3-1.9-0.5-3.6-0.5v19.9h-12.4V661.9z M2264.9,678.1c1.7,0,2.6-1.3,2.6-4c0-1.2-0.1-2-0.2-2.6c-0.1-0.6-0.4-1-0.8-1.2
			c-0.4-0.2-0.9-0.3-1.6-0.3h-2.8v8.1H2264.9z"/>
		<path class="st31" d="M2282.9,705.6v-43.7h11.8v43.7H2282.9z"/>
		<path class="st31" d="M2299.6,705.6v-43.7h12.2v36.2h12.6v7.4H2299.6z"/>
		<path class="st31" d="M2327.8,705.6v-43.7h12.2v36.2h12.6v7.4H2327.8z"/>
	</g>
	<g>
		<path class="st35" d="M2123,718.9h0.5l-3.8,17.9h-0.5L2123,718.9z"/>
		<path class="st35" d="M2128.5,718.9h0.4l9.3,17.2l3.6-17.1h0.5l-3.8,17.9h-0.6l-9.2-16.9l-3.6,16.9h-0.5L2128.5,718.9z"/>
		<path class="st35" d="M2151.7,719.4h-6.5l0.1-0.5h13.5l-0.1,0.5h-6.5l-3.7,17.4h-0.5L2151.7,719.4z"/>
		<path class="st35" d="M2162,718.9h10.9l-0.1,0.5h-10.4l-1.7,8h9.1l-0.1,0.5h-9.1l-1.8,8.4h10.7l-0.1,0.5h-11.2L2162,718.9z"/>
		<path class="st35" d="M2173.1,736.8l3.8-17.9h6.9c0.6,0,1.1,0.1,1.6,0.4c0.5,0.3,0.9,0.6,1.2,1c0.3,0.4,0.6,0.9,0.7,1.4
			c0.2,0.5,0.3,1.1,0.3,1.7c0,0.8-0.2,1.5-0.5,2.3c-0.3,0.7-0.7,1.4-1.2,2c-0.5,0.6-1.1,1.1-1.8,1.5s-1.4,0.6-2.2,0.7l2.8,7h-0.6
			l-2.8-7h-6.3l-1.5,7H2173.1z M2181.8,729.3c0.7,0,1.4-0.2,2.1-0.5c0.6-0.4,1.2-0.8,1.7-1.4s0.9-1.2,1.1-1.9
			c0.3-0.7,0.4-1.4,0.4-2.1c0-0.5-0.1-1-0.2-1.5c-0.2-0.5-0.4-0.9-0.7-1.3c-0.3-0.4-0.7-0.7-1.1-0.9c-0.4-0.2-0.9-0.3-1.4-0.3h-6.4
			l-2.1,9.8H2181.8z"/>
		<path class="st35" d="M2192.5,718.9h0.4l9.3,17.2l3.6-17.1h0.5l-3.8,17.9h-0.6l-9.2-16.9l-3.6,16.9h-0.5L2192.5,718.9z"/>
		<path class="st35" d="M2217,718.9h0.5l3.6,17.9h-0.6l-1.3-6.4h-8.8l-4,6.4h-0.6L2217,718.9z M2219,729.9l-2-10.3l-6.4,10.3H2219z"
			/>
		<path class="st35" d="M2229.9,737c-1,0-1.8-0.2-2.6-0.6s-1.4-1-1.9-1.7c-0.5-0.7-0.9-1.5-1.2-2.4c-0.3-0.9-0.4-1.8-0.4-2.8
			c0-1.2,0.3-2.4,0.8-3.7c0.5-1.3,1.2-2.4,2.1-3.4c0.9-1,2-1.9,3.2-2.5s2.6-1,4-1c0.8,0,1.4,0.1,2,0.3c0.6,0.2,1.1,0.5,1.6,0.8
			c0.4,0.3,0.8,0.8,1.1,1.2c0.3,0.5,0.5,1,0.6,1.6l-0.5,0.2c-0.2-0.7-0.5-1.2-0.8-1.7c-0.4-0.5-0.8-0.8-1.2-1.1
			c-0.4-0.3-0.9-0.5-1.5-0.6s-1.1-0.2-1.6-0.2c-1.4,0-2.6,0.3-3.8,0.9c-1.2,0.6-2.1,1.4-3,2.4s-1.5,2.1-2,3.3s-0.7,2.4-0.7,3.5
			c0,1,0.1,1.9,0.4,2.7c0.3,0.8,0.7,1.6,1.2,2.2s1.1,1.1,1.8,1.5s1.5,0.6,2.4,0.6c0.6,0,1.1-0.1,1.8-0.2c0.6-0.2,1.2-0.4,1.9-0.7
			c0.6-0.3,1.2-0.7,1.8-1.2c0.6-0.5,1.1-1,1.6-1.7l0.5,0.1c-0.4,0.7-1,1.3-1.6,1.8s-1.2,1-1.9,1.3c-0.7,0.4-1.4,0.6-2.1,0.8
			C2231.2,736.9,2230.5,737,2229.9,737z"/>
		<path class="st35" d="M2243.8,718.9h0.5l-3.8,17.9h-0.5L2243.8,718.9z"/>
		<path class="st35" d="M2252.2,736.9c-1,0-1.9-0.2-2.6-0.6c-0.8-0.4-1.4-0.9-2-1.6c-0.5-0.7-0.9-1.5-1.2-2.4
			c-0.3-0.9-0.4-1.8-0.4-2.8c0-1.4,0.3-2.7,0.9-4c0.6-1.3,1.3-2.4,2.3-3.5s2-1.8,3.2-2.4s2.4-0.9,3.7-0.9c1,0,1.9,0.2,2.6,0.6
			s1.4,1,2,1.7c0.5,0.7,0.9,1.5,1.2,2.4c0.3,0.9,0.4,1.8,0.4,2.7c0,1.4-0.3,2.7-0.9,4c-0.6,1.3-1.3,2.4-2.3,3.4
			c-0.9,1-2,1.8-3.2,2.4C2254.7,736.6,2253.5,736.9,2252.2,736.9z M2252.3,736.4c1.3,0,2.5-0.3,3.6-0.9c1.1-0.6,2.1-1.4,3-2.4
			c0.9-1,1.5-2.1,2.1-3.3c0.5-1.2,0.8-2.4,0.8-3.6c0-0.9-0.1-1.8-0.4-2.6s-0.7-1.6-1.2-2.2s-1.1-1.1-1.8-1.5
			c-0.7-0.4-1.5-0.6-2.4-0.6c-1.3,0-2.5,0.3-3.6,0.9c-1.1,0.6-2.1,1.4-3,2.4c-0.9,1-1.6,2.1-2.1,3.3c-0.5,1.2-0.8,2.4-0.8,3.7
			c0,0.9,0.1,1.8,0.4,2.6s0.6,1.6,1.1,2.2s1.1,1.1,1.8,1.5C2250.6,736.2,2251.4,736.4,2252.3,736.4z"/>
		<path class="st35" d="M2267.7,718.9h0.4l9.3,17.2l3.6-17.1h0.5l-3.8,17.9h-0.6l-9.2-16.9l-3.6,16.9h-0.5L2267.7,718.9z"/>
		<path class="st35" d="M2292.2,718.9h0.5l3.6,17.9h-0.6l-1.3-6.4h-8.8l-4,6.4h-0.6L2292.2,718.9z M2294.3,729.9l-2-10.3l-6.4,10.3
			H2294.3z"/>
		<path class="st35" d="M2303,718.9h0.5l-3.7,17.4h10.7l-0.1,0.5h-11.2L2303,718.9z"/>
	</g>
	<g>
		<polygon class="st31" points="2215.1,635.2 2187.4,579.5 2196.9,579.4 2214.8,615.4 2235.5,570.6 2208.6,570.5 2220.7,590.4 
			2210.6,590.4 2193.4,561.8 2248.9,562.1 		"/>
	</g>
	<polygon class="st35" points="2247.1,590.4 2294.3,590.4 2234.9,472.3 2203.2,536.3 2209.4,548 2234.9,496.3 2276.9,579.7 
		2247.1,579.7 	"/>
	<polygon class="st35" points="2189.2,555.1 2201.2,555.1 2178.5,509.6 2138.9,590.4 2184.6,590.4 2184.6,579.7 2156.1,579.7 
		2178.6,533.8 	"/>
</g>
</svg>
