<?xml version="1.0" encoding="utf-8"?>
<!-- Generator: Adobe Illustrator 22.0.0, SVG Export Plug-In . SVG Version: 6.00 Build 0)  -->
<svg version="1.1" id="Capa_1" xmlns="http://www.w3.org/2000/svg" xmlns:xlink="http://www.w3.org/1999/xlink" x="0px" y="0px"
	 viewBox="0 0 277 268.5" style="enable-background:new 0 0 277 268.5;" xml:space="preserve">
<style type="text/css">
	.st0{fill:#FFFFFF;}
	.st1{fill:#FFC239;}
</style>
<g id="Capa_1_1_">
</g>
<g id="Capa_2_1_">
	<g>
		<path class="st0" d="M3.4,235.2v-43.7h24.5v8.4h-12v8.5h11.5v8.2H15.8v10h12.8v8.5H3.4V235.2z"/>
		<path class="st0" d="M30.9,235.2l6.5-23.2l-5.2-20.5h12l3.2,15l2.8-15h12L57,212l6.5,23.2H51.1l-3.8-17.1l-3.9,17.1H30.9z"/>
		<path class="st0" d="M70.7,232.6c-2.7-2-4-4.7-4-8.2v-20.1c0-4.3,1.2-7.6,3.6-9.8s6.2-3.3,11.4-3.3c4.5,0,8.1,0.9,10.9,2.6
			c2.8,1.8,4.1,4.3,4.1,7.6v7.5H84.5v-6.5c0-1.3-0.2-2.1-0.6-2.6s-1.2-0.7-2.2-0.7c-1.1,0-1.8,0.3-2.2,0.8c-0.4,0.5-0.6,1.3-0.6,2.4
			v21.9c0,1.2,0.2,2,0.7,2.5s1.2,0.8,2.1,0.8c1.9,0,2.8-1.1,2.8-3.3v-7.9h12.3v8.2c0,7.3-5.1,11-15.4,11
			C76.9,235.6,73.3,234.6,70.7,232.6z"/>
		<path class="st0" d="M99.2,235.2l5.9-43.7h20.7l5.8,43.7H120l-0.9-7.1h-7.4l-0.7,7.1H99.2z M112.7,221.1h5.5l-2.7-22.2H115
			L112.7,221.1z"/>
	</g>
	<g>
		<path class="st1" d="M135.4,191.5h16.9c4.4,0,7.6,0.9,9.8,2.6c2.2,1.7,3.3,4.3,3.3,7.7l0.1,20.4c0,4.3-1,7.5-3.1,9.7
			s-5.7,3.3-10.6,3.3h-16.4V191.5z M149.8,227.4c2.2,0,3.3-0.8,3.3-2.3v-22.5c0-1-0.1-1.7-0.3-2.2s-0.6-0.8-1.2-1
			c-0.6-0.2-1.4-0.3-2.6-0.3h-1.4v28.3H149.8z"/>
		<path class="st1" d="M170.4,191.5h18.8c3,0,5.3,0.5,6.9,1.4c1.6,1,2.7,2.3,3.3,4.1c0.6,1.7,0.9,4,0.9,6.7c0,2.5-0.5,4.4-1.4,5.8
			c-0.9,1.4-2.5,2.4-4.7,2.9c1.9,0.3,3.2,0.9,4,2s1.2,2.5,1.2,4.3l-0.1,16.5h-12v-17.1c0-1.2-0.3-2-1-2.3s-1.9-0.5-3.6-0.5v19.9
			h-12.4v-43.7H170.4z M185.8,207.7c1.7,0,2.6-1.3,2.6-4c0-1.2-0.1-2-0.2-2.6c-0.1-0.6-0.4-1-0.8-1.2c-0.4-0.2-0.9-0.3-1.6-0.3H183
			v8.1H185.8z"/>
		<path class="st1" d="M203.8,235.2v-43.7h11.8v43.7H203.8z"/>
		<path class="st1" d="M220.5,235.2v-43.7h12.2v36.2h12.6v7.4h-24.8V235.2z"/>
		<path class="st1" d="M248.8,235.2v-43.7H261v36.2h12.6v7.4h-24.8V235.2z"/>
	</g>
	<g>
		<path class="st0" d="M44.5,248H44c-0.2,0-0.4,0.2-0.5,0.4l-3.8,17.9c0,0.1,0,0.3,0.1,0.4c0.1,0.1,0.2,0.2,0.4,0.2h0.5
			c0.2,0,0.4-0.2,0.5-0.4l3.8-17.9c0-0.1,0-0.3-0.1-0.4C44.8,248.1,44.7,248,44.5,248z"/>
		<path class="st0" d="M63.3,248.1h-0.5c-0.2,0-0.4,0.2-0.5,0.4L59,264.3l-8.7-16c-0.1-0.2-0.3-0.3-0.4-0.3h-0.4
			c-0.2,0-0.4,0.2-0.5,0.4l-3.9,18c0,0.1,0,0.3,0.1,0.4c0.1,0.1,0.2,0.2,0.4,0.2h0.5c0.2,0,0.4-0.2,0.5-0.4l3.3-15.6l8.6,15.7
			c0.1,0.2,0.3,0.3,0.4,0.3h0.6c0.2,0,0.4-0.2,0.5-0.4l3.8-17.9c0-0.1,0-0.3-0.1-0.4C63.6,248.2,63.5,248.1,63.3,248.1z"/>
		<path class="st0" d="M80.2,249.1l0.1-0.5c0-0.1,0-0.3-0.1-0.4c-0.1-0.1-0.2-0.2-0.4-0.2H66.3c-0.2,0-0.4,0.2-0.5,0.4l-0.1,0.5
			c0,0.1,0,0.3,0.1,0.4c0.1,0.1,0.2,0.2,0.4,0.2h5.9l-3.6,16.8c0,0.1,0,0.3,0.1,0.4c0.1,0.1,0.2,0.2,0.4,0.2h0.5
			c0.2,0,0.4-0.2,0.5-0.4l3.6-17h6.1C79.9,249.5,80.1,249.3,80.2,249.1z"/>
		<path class="st0" d="M90.7,256.5h-8.5l1.5-7h10c0.2,0,0.4-0.2,0.5-0.4l0.1-0.5c0-0.1,0-0.3-0.1-0.4c-0.1-0.1-0.2-0.2-0.4-0.2H82.9
			c-0.2,0-0.4,0.2-0.5,0.4l-3.8,17.9c0,0.1,0,0.3,0.1,0.4c0.1,0.1,0.2,0.2,0.4,0.2h11.2c0.2,0,0.4-0.2,0.5-0.4l0.1-0.5
			c0-0.1,0-0.3-0.1-0.4c-0.1-0.1-0.2-0.2-0.4-0.2H80.3l1.6-7.4h8.7c0.2,0,0.4-0.2,0.5-0.4l0.1-0.5c0-0.1,0-0.3-0.1-0.4
			C91,256.6,90.9,256.5,90.7,256.5z"/>
		<path class="st0" d="M107.9,249.6c-0.3-0.4-0.7-0.7-1.3-1.1c-0.5-0.3-1.1-0.5-1.9-0.5h-6.9c-0.2,0-0.4,0.2-0.5,0.4l-3.8,17.9
			c0,0,0,0.2,0,0.2c0,0.3,0.2,0.5,0.5,0.5h0.5c0.2,0,0.4-0.2,0.5-0.4l1.4-6.6h5.5l2.7,6.7c0.1,0.2,0.3,0.3,0.5,0.3h0.6
			c0.2,0,0.3-0.1,0.4-0.2c0.1-0.1,0.1-0.3,0.1-0.5l-2.6-6.4c0.6-0.1,1.2-0.3,1.8-0.7c0.7-0.4,1.4-1,1.9-1.6c0.5-0.6,0.9-1.3,1.3-2.1
			c0.3-0.9,0.5-1.6,0.5-2.5c0-0.7-0.1-1.3-0.3-1.8C108.6,250.7,108.3,250.2,107.9,249.6z M103,258.4c-0.1-0.1-0.2-0.1-0.3-0.1h-6
			l1.9-8.8h6c0.4,0,0.9,0.1,1.2,0.2c0.3,0.1,0.6,0.4,0.9,0.8c0.2,0.3,0.4,0.7,0.6,1.1c0.1,0.5,0.2,1,0.2,1.4c0,0.7-0.1,1.3-0.4,2
			c-0.2,0.5-0.5,1.1-1,1.7c-0.5,0.5-1,0.9-1.5,1.3C104,258.2,103.5,258.3,103,258.4z"/>
		<path class="st0" d="M127.7,248.3c-0.1-0.1-0.2-0.2-0.4-0.2h-0.5c-0.2,0-0.4,0.2-0.5,0.4l-3.3,15.8l-8.7-16
			c-0.1-0.2-0.3-0.3-0.4-0.3h-0.4c-0.2,0-0.4,0.2-0.5,0.4l-3.9,18c0,0.1,0,0.3,0.1,0.4c0.1,0.1,0.2,0.2,0.4,0.2h0.5
			c0.2,0,0.4-0.2,0.5-0.4l3.3-15.6l8.6,15.7c0.1,0.2,0.3,0.3,0.4,0.3h0.6c0.2,0,0.4-0.2,0.5-0.4l3.8-17.9
			C127.8,248.6,127.8,248.4,127.7,248.3z"/>
		<path class="st0" d="M138.4,248h-0.5c-0.2,0-0.3,0.1-0.4,0.2l-11.2,17.9c-0.1,0.2-0.1,0.3,0,0.5c0.1,0.2,0.3,0.3,0.4,0.3h0.6
			c0.2,0,0.3-0.1,0.4-0.2l3.9-6.2h8.1l1.2,6c0,0.2,0.3,0.4,0.5,0.4h0.6c0.1,0,0.3-0.1,0.4-0.2c0.1-0.1,0.1-0.3,0.1-0.4l-3.6-17.9
			C138.8,248.2,138.6,248,138.4,248z M132.5,259l5.3-8.5l1.6,8.5H132.5z"/>
		<path class="st0" d="M159.9,250.5c-0.3-0.4-0.7-1-1.2-1.3c-0.5-0.3-1-0.6-1.7-0.8c-0.7-0.2-1.3-0.3-2.2-0.3
			c-1.7,0-3.3,0.6-4.2,1.1c-1.2,0.6-2.3,1.5-3.3,2.6c-1,1.1-1.7,2.2-2.2,3.6c-0.6,1.5-0.8,2.7-0.8,3.9c0,1.2,0.1,2.1,0.4,3
			c0.3,0.9,0.7,1.8,1.3,2.5c0.6,0.9,1.3,1.5,2.1,1.9c0.9,0.5,1.8,0.7,2.8,0.7c0.7,0,1.4-0.1,2.1-0.3c0.7-0.2,1.5-0.4,2.2-0.8
			c0.8-0.3,1.4-0.9,2-1.4c0.8-0.6,1.3-1.3,1.7-1.9c0.1-0.1,0.1-0.3,0-0.5c-0.1-0.1-0.2-0.3-0.4-0.3l-0.5-0.1c-0.2,0-0.4,0-0.5,0.2
			c-0.4,0.6-0.9,1.1-1.5,1.6c-0.6,0.5-1.1,0.9-1.7,1.1c-0.7,0.3-1.3,0.5-1.8,0.7l-0.4,0.1c-0.5,0.1-0.9,0.1-1.3,0.1
			c-0.8,0-1.5-0.2-2.2-0.5c-0.6-0.4-1.2-0.8-1.7-1.4c-0.4-0.5-0.8-1.2-1.1-2.1c-0.3-0.7-0.4-1.5-0.4-2.5c0-1.1,0.2-2.3,0.7-3.3
			c0.6-1.3,1.1-2.3,1.9-3.2c1-1.1,1.8-1.8,2.9-2.3c1.2-0.6,2.3-0.8,3.6-0.8c0.4,0,0.8,0.1,1.3,0.2l0.2,0c0.5,0.1,0.9,0.3,1.3,0.5
			c0.4,0.3,0.7,0.6,1.1,1c0.3,0.5,0.6,0.9,0.7,1.6c0,0.1,0.1,0.3,0.3,0.3s0.3,0.1,0.4,0l0.5-0.2c0.2-0.1,0.3-0.3,0.3-0.5
			C160.5,251.7,160.3,251.1,159.9,250.5z"/>
		<path class="st0" d="M165.3,248h-0.5c-0.2,0-0.4,0.2-0.5,0.4l-3.8,17.9c0,0.1,0,0.3,0.1,0.4s0.2,0.2,0.4,0.2h0.5
			c0.2,0,0.4-0.2,0.5-0.4l3.8-17.9c0-0.1,0-0.3-0.1-0.4S165.5,248,165.3,248z"/>
		<path class="st0" d="M182,250.3c-0.7-0.8-1.4-1.4-2.1-1.8c-0.8-0.4-1.7-0.7-2.8-0.7c-1.4,0-2.6,0.3-3.9,1
			c-1.3,0.7-2.4,1.4-3.3,2.5c-1,1.1-1.7,2.2-2.4,3.6c-0.6,1.4-0.9,2.8-0.9,4.2c0,1.2,0.1,2.1,0.4,3c0.3,0.9,0.7,1.8,1.3,2.6
			c0.7,0.8,1.3,1.3,2.1,1.7c0.8,0.4,1.7,0.7,2.8,0.7c1.5,0,2.9-0.4,3.9-1.1c1.3-0.7,2.4-1.5,3.3-2.5c1-1,1.7-2.1,2.4-3.5
			c0.6-1.4,0.9-2.8,0.9-4.2c0-1.1-0.1-2-0.4-2.9C183,251.9,182.5,251,182,250.3z M182.3,255.8c0,1.1-0.2,2.2-0.7,3.4
			c-0.5,1.1-1.1,2.2-2,3.2c-0.9,1-1.8,1.7-2.9,2.3c-1,0.6-2.2,0.8-3.4,0.8c-0.8,0-1.6-0.2-2.3-0.4c-0.6-0.4-1.2-0.8-1.7-1.4
			c-0.4-0.5-0.7-1.3-1-2.1c-0.2-0.7-0.4-1.5-0.4-2.4c0-1.1,0.2-2.3,0.8-3.5c0.5-1.1,1.2-2.2,2-3.2c0.9-1,1.8-1.7,2.9-2.3
			c1-0.6,2.2-0.8,3.4-0.8c0.8,0,1.5,0.2,2.2,0.5c0.6,0.4,1.2,0.8,1.7,1.4c0.4,0.5,0.8,1.2,1.1,2.1
			C182.2,254,182.3,254.8,182.3,255.8z"/>
		<path class="st0" d="M202.9,248.3c-0.1-0.1-0.2-0.2-0.4-0.2H202c-0.2,0-0.4,0.2-0.5,0.4l-3.3,15.8l-8.7-16
			c-0.1-0.2-0.3-0.3-0.4-0.3h-0.4c-0.2,0-0.4,0.2-0.5,0.4l-3.9,18c0,0.1,0,0.3,0.1,0.4c0.1,0.1,0.2,0.2,0.4,0.2h0.5
			c0.2,0,0.4-0.2,0.5-0.4l3.3-15.6l8.6,15.7c0.1,0.2,0.3,0.3,0.4,0.3h0.6c0.2,0,0.4-0.2,0.5-0.4l3.8-17.9
			C203,248.6,203,248.4,202.9,248.3z"/>
		<path class="st0" d="M213.6,248h-0.5c-0.2,0-0.3,0.1-0.4,0.2l-11.2,17.9c-0.1,0.2-0.1,0.3,0,0.5s0.3,0.3,0.4,0.3h0.6
			c0.2,0,0.3-0.1,0.4-0.2l3.9-6.2h8.1l1.2,6c0,0.2,0.3,0.4,0.5,0.4h0.6c0.1,0,0.3-0.1,0.4-0.2c0.1-0.1,0.1-0.3,0.1-0.4l-3.6-17.9
			C214,248.2,213.8,248,213.6,248z M207.7,259l5.3-8.5l1.6,8.5H207.7z"/>
		<path class="st0" d="M231.8,265.6c-0.1-0.1-0.2-0.2-0.4-0.2h-10.1l3.6-16.8c0-0.1,0-0.3-0.1-0.4s-0.2-0.2-0.4-0.2h-0.5
			c-0.2,0-0.4,0.2-0.5,0.4l-3.8,17.9c0,0.1,0,0.3,0.1,0.4s0.2,0.2,0.4,0.2h11.2c0.2,0,0.4-0.2,0.5-0.4l0.1-0.5
			C231.9,265.9,231.9,265.7,231.8,265.6z"/>
	</g>
	<g>
		<polygon class="st1" points="136,164.8 108.3,109.1 117.8,109 135.7,145 156.4,100.2 129.6,100.1 141.6,120 131.6,120 114.3,91.4 
			169.8,91.7 		"/>
	</g>
	<polygon class="st0" points="168.1,120 215.2,120 155.8,1.9 124.2,65.9 130.3,77.6 155.9,25.9 197.9,109.3 168.1,109.3 	"/>
	<polygon class="st0" points="110.2,84.7 122.1,84.7 99.4,39.2 59.8,120 105.6,120 105.6,109.3 77,109.3 99.5,63.4 	"/>
</g>
</svg>
