<svg id="fc3aaa8e-142d-4212-a905-9b51a37b2980" data-name="Capa 1" xmlns="http://www.w3.org/2000/svg" viewBox="0 0 442.49 167.42"><defs><style>.\35 24da4a1-ab1f-4e1f-b1b7-c884e335abe3{fill:#fff;}.\37 e947d95-c48f-4be8-9978-d38e6a93422a{fill:#ffc239;}</style></defs><title>logo2</title><polygon class="524da4a1-ab1f-4e1f-b1b7-c884e335abe3" points="183.38 60.01 194.91 60.01 194.91 51.78 183.38 51.78 183.38 43.29 195.41 43.29 195.41 34.85 170.93 34.85 170.93 78.51 196.19 78.51 196.19 70.02 183.38 70.02 183.38 60.01"/><polygon class="524da4a1-ab1f-4e1f-b1b7-c884e335abe3" points="229.77 34.8 217.75 34.8 214.97 49.85 211.77 34.8 199.82 34.8 205.01 55.33 198.46 78.51 210.91 78.51 214.83 61.43 218.67 78.51 231.05 78.51 224.5 55.33 229.77 34.8"/><path class="524da4a1-ab1f-4e1f-b1b7-c884e335abe3" d="M252,67.58q0,3.3-2.85,3.3a2.73,2.73,0,0,1-2.13-.78,3.68,3.68,0,0,1-.72-2.52V45.68a4,4,0,0,1,.61-2.39,2.64,2.64,0,0,1,2.24-.81,2.86,2.86,0,0,1,2.21.71,4,4,0,0,1,.64,2.59v6.45H264.2V44.71a8.51,8.51,0,0,0-4.12-7.62c-2.76-1.76-6.38-2.64-10.89-2.64q-7.75,0-11.38,3.3t-3.63,9.81V67.68a9.72,9.72,0,0,0,4,8.24q4,3,10.71,3,15.43,0,15.43-11V59.7H252Z"/><path class="524da4a1-ab1f-4e1f-b1b7-c884e335abe3" d="M293.37,34.85h-20.7l-5.91,43.66h11.89l.71-7.07h7.4l.85,7.07h11.6ZM280.28,64.48l2.28-22.21h.57l2.7,22.21Z"/><path class="7e947d95-c48f-4be8-9978-d38e6a93422a" d="M329.59,37.45q-3.29-2.6-9.82-2.6H302.91V78.51h16.43q7.4,0,10.6-3.26t3.13-9.7l-.14-20.43Q332.86,40,329.59,37.45Zm-8.9,31c0,1.55-1.11,2.33-3.34,2.33h-2.14V42.48h1.36a10,10,0,0,1,2.63.25,1.73,1.73,0,0,1,1.17,1,5.7,5.7,0,0,1,.32,2.21Z"/><path class="7e947d95-c48f-4be8-9978-d38e6a93422a" d="M366.51,52.84a10.6,10.6,0,0,0,1.35-5.79,21.89,21.89,0,0,0-.85-6.68,7.19,7.19,0,0,0-3.31-4.07,13.82,13.82,0,0,0-6.94-1.45H338V78.51h12.38V58.59a9.12,9.12,0,0,1,3.63.5q1,.51,1,2.34V78.51h12L367.08,62a6.72,6.72,0,0,0-1.25-4.27,6,6,0,0,0-4-2A7.36,7.36,0,0,0,366.51,52.84ZM353.35,51h-2.92V42.93h2.85a3.28,3.28,0,0,1,1.63.33,1.85,1.85,0,0,1,.79,1.2,11.85,11.85,0,0,1,.21,2.59Q355.91,51,353.35,51Z"/><rect class="7e947d95-c48f-4be8-9978-d38e6a93422a" x="371.35" y="34.85" width="11.81" height="43.65"/><polygon class="7e947d95-c48f-4be8-9978-d38e6a93422a" points="400.3 34.85 388.07 34.85 388.07 78.51 412.9 78.51 412.9 71.09 400.3 71.09 400.3 34.85"/><polygon class="7e947d95-c48f-4be8-9978-d38e6a93422a" points="428.55 71.09 428.55 34.85 416.31 34.85 416.31 78.51 441.14 78.51 441.14 71.09 428.55 71.09"/><polygon class="524da4a1-ab1f-4e1f-b1b7-c884e335abe3" points="207.41 110.01 208.43 110.01 212.34 91.65 211.32 91.65 207.41 110.01"/><polygon class="524da4a1-ab1f-4e1f-b1b7-c884e335abe3" points="226.61 108.31 217.62 91.76 217.54 91.63 216.81 91.63 212.91 110.01 213.92 110.01 217.42 93.57 226.34 110.01 227.25 110.01 231.16 91.65 230.14 91.65 226.61 108.31"/><polygon class="524da4a1-ab1f-4e1f-b1b7-c884e335abe3" points="247.6 91.63 233.59 91.63 233.39 92.63 239.88 92.63 236.18 110.01 237.2 110.01 240.9 92.63 247.4 92.63 247.6 91.63"/><polygon class="524da4a1-ab1f-4e1f-b1b7-c884e335abe3" points="251.05 92.63 261.48 92.63 261.69 91.63 250.24 91.63 246.33 110.01 258.01 110.01 258.21 109.01 247.56 109.01 249.24 101.12 258.38 101.12 258.58 100.11 249.44 100.11 251.05 92.63"/><path class="524da4a1-ab1f-4e1f-b1b7-c884e335abe3" d="M275.26,93.11A3.89,3.89,0,0,0,274,92a3.55,3.55,0,0,0-1.7-.4h-7.13L261.25,110h1l1.49-7h5.92l2.8,7h1.14L270.8,103a5.45,5.45,0,0,0,1.93-.65,7,7,0,0,0,1.84-1.53,7.78,7.78,0,0,0,1.25-2.07,6.3,6.3,0,0,0,.47-2.37,5.83,5.83,0,0,0-.26-1.72A5.19,5.19,0,0,0,275.26,93.11Zm-5,8.87H264l2-9.35h6.2a2.7,2.7,0,0,1,1.27.3,3,3,0,0,1,1,.81,3.89,3.89,0,0,1,.64,1.21,4.7,4.7,0,0,1,.23,1.46,5.33,5.33,0,0,1-.4,2,6.46,6.46,0,0,1-1.09,1.8,6.14,6.14,0,0,1-1.61,1.3A4,4,0,0,1,270.25,102Z"/><polygon class="524da4a1-ab1f-4e1f-b1b7-c884e335abe3" points="294.13 91.65 290.6 108.31 281.6 91.76 281.53 91.63 280.8 91.63 276.89 110.01 277.9 110.01 281.41 93.57 290.33 110.01 291.23 110.01 295.14 91.65 294.13 91.65"/><path class="524da4a1-ab1f-4e1f-b1b7-c884e335abe3" d="M305.3,91.63,293.78,110h1.14l4-6.4h8.5l1.28,6.4h1.06L306.1,91.63Zm-5.76,11,5.85-9.34,1.84,9.34Z"/><path class="524da4a1-ab1f-4e1f-b1b7-c884e335abe3" d="M327.25,94a4.84,4.84,0,0,0-1.17-1.3,5.24,5.24,0,0,0-1.65-.84,7,7,0,0,0-2.11-.31,8.87,8.87,0,0,0-4.16,1,11.48,11.48,0,0,0-3.29,2.57,11.91,11.91,0,0,0-2.16,3.49,10.31,10.31,0,0,0-.77,3.8,9.6,9.6,0,0,0,.43,2.87,8.16,8.16,0,0,0,1.23,2.49,6.07,6.07,0,0,0,2,1.76,5.57,5.57,0,0,0,2.73.66,8.77,8.77,0,0,0,2.1-.27,9.9,9.9,0,0,0,2.13-.81,10.29,10.29,0,0,0,2-1.35,8.32,8.32,0,0,0,1.61-1.84l.19-.28-.95-.27-.1.14a9.35,9.35,0,0,1-1.52,1.66,8.91,8.91,0,0,1-1.73,1.14,9.11,9.11,0,0,1-1.8.66,5.61,5.61,0,0,1-4-.32,5.47,5.47,0,0,1-1.75-1.46,6.58,6.58,0,0,1-1.13-2.15,8.37,8.37,0,0,1-.41-2.63,9.43,9.43,0,0,1,.69-3.45,11.26,11.26,0,0,1,1.92-3.19,10.15,10.15,0,0,1,2.92-2.32,7.63,7.63,0,0,1,3.64-.89,6.77,6.77,0,0,1,1.55.18,4.68,4.68,0,0,1,1.38.57,4.26,4.26,0,0,1,1.13,1,4.57,4.57,0,0,1,.77,1.58l.07.24,1-.29-.05-.23A5.58,5.58,0,0,0,327.25,94Z"/><polygon class="524da4a1-ab1f-4e1f-b1b7-c884e335abe3" points="328.2 110.01 329.22 110.01 333.13 91.65 332.12 91.65 328.2 110.01"/><path class="524da4a1-ab1f-4e1f-b1b7-c884e335abe3" d="M349.33,93.89a6.39,6.39,0,0,0-2-1.73,5.73,5.73,0,0,0-2.77-.66,8.41,8.41,0,0,0-3.82.93,11.8,11.8,0,0,0-3.29,2.47,12.85,12.85,0,0,0-2.31,3.52,10.16,10.16,0,0,0-.88,4.11,9.57,9.57,0,0,0,.42,2.84,7.21,7.21,0,0,0,1.24,2.44,5.92,5.92,0,0,0,4.79,2.33,8.46,8.46,0,0,0,3.83-.94,11.82,11.82,0,0,0,3.28-2.45,12.43,12.43,0,0,0,2.31-3.51,9.9,9.9,0,0,0,.47-6.9A7.75,7.75,0,0,0,349.33,93.89Zm-5,14.37a7.39,7.39,0,0,1-3.48.87,4.91,4.91,0,0,1-2.33-.54,5.47,5.47,0,0,1-1.76-1.44,6.47,6.47,0,0,1-1.1-2.12,8.42,8.42,0,0,1-.38-2.57A9,9,0,0,1,336,98.9a11.53,11.53,0,0,1,2-3.21A10.63,10.63,0,0,1,341,93.38a7.4,7.4,0,0,1,3.48-.88,4.78,4.78,0,0,1,2.29.54,5.47,5.47,0,0,1,1.75,1.46,6.81,6.81,0,0,1,1.12,2.14,8.37,8.37,0,0,1,.39,2.57,9,9,0,0,1-.75,3.53,12.08,12.08,0,0,1-2,3.2A10.29,10.29,0,0,1,344.29,108.26Z"/><polygon class="524da4a1-ab1f-4e1f-b1b7-c884e335abe3" points="369.35 91.65 365.82 108.31 356.82 91.76 356.75 91.63 356.02 91.63 352.11 110.01 353.13 110.01 356.63 93.57 365.55 110.01 366.45 110.01 370.36 91.65 369.35 91.65"/><path class="524da4a1-ab1f-4e1f-b1b7-c884e335abe3" d="M380.52,91.63,369,110h1.14l4-6.4h8.5l1.28,6.4H385l-3.67-18.38Zm-5.76,11,5.85-9.34,1.84,9.34Z"/><polygon class="524da4a1-ab1f-4e1f-b1b7-c884e335abe3" points="388.6 109.01 392.3 91.63 391.29 91.63 387.38 110.01 399.05 110.01 399.25 109.01 388.6 109.01"/><polygon class="7e947d95-c48f-4be8-9978-d38e6a93422a" points="55.86 91.78 73.12 120.35 83.14 120.35 71.11 100.43 97.99 100.58 77.29 145.35 59.38 109.4 49.85 109.48 77.57 165.16 111.37 92.08 55.86 91.78"/><polygon class="524da4a1-ab1f-4e1f-b1b7-c884e335abe3" points="109.63 120.38 156.78 120.38 97.35 2.26 65.69 66.28 71.88 77.94 97.43 26.27 139.39 109.66 109.63 109.66 109.63 120.38"/><polygon class="524da4a1-ab1f-4e1f-b1b7-c884e335abe3" points="1.35 120.38 47.13 120.38 47.13 109.66 18.54 109.66 41.04 63.73 51.71 85.06 63.69 85.06 40.95 39.57 1.35 120.38"/></svg>